<?xml version="1.0" standalone="no"?><!DOCTYPE svg PUBLIC "-//W3C//DTD SVG 1.1//EN" "http://www.w3.org/Graphics/SVG/1.1/DTD/svg11.dtd"><svg class="icon" width="200px" height="200.00px" viewBox="0 0 1024 1024" version="1.1" xmlns="http://www.w3.org/2000/svg"><path d="M668.64 909.09a1962.1 1962.1 0 0 1-312.53 0 262.4 262.4 0 0 1-240.67-240.66 1962.1 1962.1 0 0 1 0-312.53 262.4 262.4 0 0 1 240.67-240.67 1962.1 1962.1 0 0 1 312.53 0A262.4 262.4 0 0 1 909.3 355.9a1962.1 1962.1 0 0 1 0 312.53 262.4 262.4 0 0 1-240.66 240.66z" fill="#F1DFFF" /><path d="M787 514.63q0 53.37-4.25 106.67a179.13 179.13 0 0 1-164.29 164.29q-53.1 4.24-106.35 4.25-53.55 0-107-4.25A179.12 179.12 0 0 1 240.83 621.3q-4.26-53.25-4.26-106.67T240.83 408a179.12 179.12 0 0 1 164.28-164.33q53.26-4.26 106.68-4.26h78.75a103.87 103.87 0 0 1 70.8 27.87l92.6 86.28a103.83 103.83 0 0 1 33.06 76z" fill="#BE85FF" /><path d="M640.79 665.17H381.61a27.67 27.67 0 0 1 0-55.33h259.18a27.67 27.67 0 0 1 0 55.33zM640.79 543.84H381.61a27.66 27.66 0 1 1 0-55.32h259.18a27.66 27.66 0 1 1 0 55.32zM512 422.52H381.52a27.66 27.66 0 1 1 0-55.32H512a27.66 27.66 0 1 1 0 55.32z" fill="#F1DFFF" /></svg>