<?xml version="1.0" standalone="no"?><!DOCTYPE svg PUBLIC "-//W3C//DTD SVG 1.1//EN" "http://www.w3.org/Graphics/SVG/1.1/DTD/svg11.dtd"><svg class="icon" width="200px" height="200.00px" viewBox="0 0 1024 1024" version="1.1" xmlns="http://www.w3.org/2000/svg"><path d="M669.64 909.09a1962.1 1962.1 0 0 1-312.53 0 262.4 262.4 0 0 1-240.67-240.66 1962.1 1962.1 0 0 1 0-312.53 262.4 262.4 0 0 1 240.67-240.67 1962.1 1962.1 0 0 1 312.53 0A262.4 262.4 0 0 1 910.3 355.9a1962.1 1962.1 0 0 1 0 312.53 262.4 262.4 0 0 1-240.66 240.66z" fill="#FFDEDE" /><path d="M413.39 488.69q-22 1.76-44 1.76t-44.26-1.76a74.11 74.11 0 0 1-68-68q-1.76-22-1.76-44.13t1.76-44.13a74.09 74.09 0 0 1 68-68q22-1.77 44.13-1.76t44.13 1.76a74.08 74.08 0 0 1 68 68q1.77 22 1.76 44.13t-1.76 44.13a74.09 74.09 0 0 1-68 68zM609.82 488.29q-17-14.46-32.72-30.2t-30.38-32.91a74.92 74.92 0 0 1 0-97.18q14.49-17 30.29-32.81t32.81-30.29a74.92 74.92 0 0 1 97.18 0q17 14.49 32.81 30.29t30.3 32.81a74.94 74.94 0 0 1 0 97.18q-14.5 17-30.3 32.81T707 488.29a74.92 74.92 0 0 1-97.18 0zM413.39 777.84q-22 1.75-44 1.76t-44.26-1.76a74.11 74.11 0 0 1-68-68q-1.76-22-1.76-44.13t1.76-44.13a74.11 74.11 0 0 1 68-68q22-1.75 44.13-1.76t44.13 1.76a74.09 74.09 0 0 1 68 68q1.77 22 1.76 44.13t-1.76 44.13a74.09 74.09 0 0 1-68 68zM702.54 777.84q-22 1.75-44 1.76t-44.26-1.76a74.11 74.11 0 0 1-68-68q-1.75-22-1.76-44.13t1.76-44.13a74.11 74.11 0 0 1 68-68q22-1.75 44.13-1.76t44.13 1.76a74.11 74.11 0 0 1 68 68q1.75 22 1.76 44.13t-1.76 44.13a74.11 74.11 0 0 1-68 68z" fill="#FF3B3B" /></svg>