<?xml version="1.0" standalone="no"?><!DOCTYPE svg PUBLIC "-//W3C//DTD SVG 1.1//EN" "http://www.w3.org/Graphics/SVG/1.1/DTD/svg11.dtd"><svg class="icon" width="200px" height="200.00px" viewBox="0 0 1024 1024" version="1.1" xmlns="http://www.w3.org/2000/svg"><path d="M670.64 907.09a1962.1 1962.1 0 0 1-312.53 0 262.4 262.4 0 0 1-240.67-240.66 1962.1 1962.1 0 0 1 0-312.53 262.4 262.4 0 0 1 240.67-240.67 1962.1 1962.1 0 0 1 312.53 0A262.4 262.4 0 0 1 911.3 353.9a1962.1 1962.1 0 0 1 0 312.53 262.4 262.4 0 0 1-240.66 240.66z" fill="#FFF6DE" /><path d="M741.49 326.2a155.37 155.37 0 0 0-219.73 0 13.1 13.1 0 0 1-18.52 0 155.37 155.37 0 0 0-219.73 0 155.37 155.37 0 0 0 0 219.73l9.26 9.26 177.6 177.6a59.58 59.58 0 0 0 84.26 0l186.86-186.86a155.37 155.37 0 0 0 0-219.73z" fill="#FFB636" /><path d="M691.53 477.89a26.66 26.66 0 0 1-26.65-26.66 51.81 51.81 0 0 0-51.75-51.75 26.65 26.65 0 1 1 0-53.3 105.17 105.17 0 0 1 105 105.05 26.66 26.66 0 0 1-26.6 26.66z" fill="#FFF6DE" /></svg>