<?xml version="1.0" standalone="no"?><!DOCTYPE svg PUBLIC "-//W3C//DTD SVG 1.1//EN" "http://www.w3.org/Graphics/SVG/1.1/DTD/svg11.dtd"><svg t="1756794663592" class="icon" viewBox="0 0 1024 1024" version="1.1" xmlns="http://www.w3.org/2000/svg" p-id="4265" data-spm-anchor-id="a313x.collections_detail.0.i61.7ee73a81SqdI3p" xmlns:xlink="http://www.w3.org/1999/xlink" width="256" height="256"><path d="M673.64 910.09a1962.1 1962.1 0 0 1-312.53 0 262.4 262.4 0 0 1-240.67-240.66 1962.1 1962.1 0 0 1 0-312.53 262.4 262.4 0 0 1 240.67-240.67 1962.1 1962.1 0 0 1 312.53 0A262.4 262.4 0 0 1 914.3 356.9a1962.1 1962.1 0 0 1 0 312.53 262.4 262.4 0 0 1-240.66 240.66z" fill="#FFE4CF" p-id="4266" data-spm-anchor-id="a313x.collections_detail.0.i58.7ee73a81SqdI3p" class=""></path><path d="M694.28 740.71l-35.49 3c-34.86 2.9-105.7 4.36-140.65 4.37-35.15 0-106.2-1.45-141.27-4.37l-35.49-3c-65.9-5.5-118.23-60.13-123.5-128.92l-3.1-40.52c-2.58-33.69-2.58-88.81 0-122.5l3.1-40.52c5.27-68.79 57.6-123.42 123.5-128.92l35.49-3c35-2.91 105.91-4.37 141-4.37s106 1.46 141 4.37l35.49 3c65.9 5.5 118.23 60.13 123.5 128.92l2.83 37.05c2.8 36.5 3 109 0 129.44l-2.83 37c-5.35 68.84-57.68 123.47-123.58 128.97z" fill="#FF6E1F" p-id="4267" data-spm-anchor-id="a313x.collections_detail.0.i55.7ee73a81SqdI3p" class=""></path><path d="M373.77 358.25a45.15 45.15 0 1 1-44.91 45.15 45 45 0 0 1 44.91-45.15z m316.1 289.61s-92.87 8-179.87 8c-91 0-168.3-8-168.3-8-18.79 0-30.34-20.67-20.56-36.8l49.44-81.51a24 24 0 0 1 36.78-5.29l38.24 35a24 24 0 0 0 34.19-1.76l79.4-89.38a24 24 0 0 1 36.64 0.85l112.73 139.42c12.79 15.82 1.59 39.47-18.69 39.47z" fill="#FFE4CF" p-id="4268" data-spm-anchor-id="a313x.collections_detail.0.i60.7ee73a81SqdI3p" class="selected"></path></svg>