<svg xmlns="http://www.w3.org/2000/svg" xmlns:xlink="http://www.w3.org/1999/xlink" width="500" height="500" viewBox="0 0 500 500" fill="none">
<path d="M118.44 320.87C114.72 323.42 109.83 326.62 109.83 326.62C109.83 326.62 105.35 323.67 101.37 321.62C98.9126 320.42 96.7794 318.647 95.1501 316.45C93.7158 314.267 93.0249 311.678 93.1801 309.07C93.3454 307.037 94.1229 305.102 95.4101 303.52C96.6219 301.931 98.3001 300.759 100.21 300.17C103.562 299.217 107.136 300.637 108.92 303.63C110.428 300.629 113.703 298.947 117.02 299.47C118.987 299.834 120.791 300.802 122.18 302.24C123.648 303.652 124.647 305.482 125.04 307.48C125.511 310.034 125.147 312.671 124 315C122.638 317.37 120.733 319.382 118.44 320.87Z"   fill="#EBEBEB" >
</path>
<path d="M373.83 206.01C372.404 203.821 371.723 201.228 371.89 198.62C372.05 196.586 372.828 194.649 374.12 193.07C375.326 191.479 377.002 190.307 378.91 189.72C382.262 188.767 385.836 190.187 387.62 193.18C389.128 190.179 392.403 188.497 395.72 189.02C397.687 189.384 399.491 190.352 400.88 191.79C402.348 193.204 403.35 195.032 403.75 197.03C404.209 199.59 403.834 202.23 402.68 204.56C401.321 206.932 399.415 208.945 397.12 210.43C393.41 212.98 388.51 216.18 388.51 216.18C388.51 216.18 384.04 213.18 380.05 211.18C377.592 209.98 375.459 208.207 373.83 206.01Z"   fill="#EBEBEB" >
</path>
<path d="M140.03 288.05C139.158 289.574 137.934 290.866 136.46 291.82C134.07 293.46 130.93 295.52 130.93 295.52C130.93 295.52 128.05 293.62 125.49 292.28C123.911 291.509 122.539 290.371 121.49 288.96C120.581 287.561 120.147 285.906 120.25 284.24C120.349 282.934 120.848 281.691 121.68 280.68C122.457 279.657 123.534 278.901 124.76 278.52C126.082 278.159 127.493 278.351 128.67 279.05C129.358 279.473 129.937 280.052 130.36 280.74C131.328 278.814 133.432 277.737 135.56 278.08C136.823 278.304 137.983 278.924 138.87 279.85C139.815 280.758 140.457 281.935 140.71 283.22C141.012 284.861 140.773 286.556 140.03 288.05Z"   fill="#F5F5F5" >
</path>
<path d="M356.21 219.54C356.988 218.52 358.065 217.769 359.29 217.39C361.443 216.796 363.729 217.702 364.89 219.61C365.222 218.956 365.693 218.382 366.27 217.93C367.353 217.087 368.734 216.725 370.09 216.93C371.353 217.162 372.511 217.785 373.4 218.71C374.346 219.617 374.989 220.794 375.24 222.08C375.541 223.721 375.302 225.416 374.56 226.91C373.691 228.436 372.466 229.729 370.99 230.68C368.6 232.31 365.46 234.37 365.46 234.37C365.46 234.37 362.59 232.48 360.02 231.13C358.439 230.362 357.066 229.223 356.02 227.81C355.112 226.414 354.678 224.762 354.78 223.1C354.885 221.796 355.384 220.554 356.21 219.54Z"   fill="#F5F5F5" >
</path>
<path d="M405.33 273.65C405.429 272.345 405.928 271.101 406.76 270.09C407.537 269.067 408.614 268.311 409.84 267.93C411.162 267.569 412.573 267.761 413.75 268.46C414.439 268.883 415.017 269.462 415.44 270.15C416.403 268.219 418.511 267.141 420.64 267.49C421.9 267.723 423.057 268.342 423.95 269.26C424.895 270.168 425.537 271.345 425.79 272.63C426.087 274.272 425.848 275.965 425.11 277.46C424.237 278.986 423.009 280.28 421.53 281.23C419.15 282.87 416 284.93 416 284.93C416 284.93 413.13 283.03 410.57 281.69C408.991 280.919 407.619 279.781 406.57 278.37C405.662 276.971 405.227 275.316 405.33 273.65Z"   fill="#EBEBEB" >
</path>
<path d="M136.97 321.62C137.802 321.77 138.565 322.18 139.15 322.79C139.782 323.383 140.218 324.154 140.4 325C140.595 326.084 140.437 327.202 139.95 328.19C139.375 329.198 138.566 330.052 137.59 330.68C136.02 331.76 133.94 333.11 133.94 333.11C133.94 333.11 132.05 331.86 130.36 330.98C129.323 330.467 128.422 329.717 127.73 328.79C127.126 327.87 126.835 326.779 126.9 325.68C126.967 324.821 127.299 324.003 127.85 323.34C128.353 322.668 129.052 322.169 129.85 321.91C130.722 321.672 131.653 321.798 132.43 322.26C132.881 322.544 133.26 322.927 133.54 323.38C133.76 322.949 134.07 322.571 134.45 322.27C135.165 321.718 136.076 321.483 136.97 321.62Z"   fill="#F5F5F5" >
</path>
<path d="M112 128.22C112.93 128.38 114.22 129.35 112.94 130.42C111.66 131.49 101.07 136.7 103.85 141.57C106.63 146.44 120.97 146.38 122.54 146.41C124.11 146.44 124.65 146.89 124.82 147.69C124.99 148.49 121.26 149.9 118.31 151.5C115.36 153.1 112.22 155.5 114.05 158.17C115.88 160.84 125.67 164.29 144.52 159.36L153.11 156.51L155.11 147.63C158.17 128.39 153.79 118.99 150.94 117.43C148.09 115.87 146.03 119.22 144.72 122.31C143.41 125.4 142.37 129.25 141.56 129.17C140.75 129.09 140.24 128.58 140.06 127.02C139.88 125.46 138.55 111.18 133.42 108.9C128.29 106.62 124.15 117.66 123.21 119.04C122.27 120.42 121.21 119.26 120.93 118.32C120.65 117.38 117.42 106.69 116.13 101.77C114.84 96.8501 112.65 94.0301 109.46 94.3301C106.27 94.6301 105.88 99.8801 104.85 102.06C103.82 104.24 101.38 102.47 101.38 102.47C96.7353 97.2346 91.7441 92.3169 86.4402 87.7501C76.2702 78.7501 72.7002 83.8101 72.7002 83.8101L72.7902 83.7201C72.7902 83.7201 68.1802 87.7201 78.1902 96.9301C83.2535 101.746 88.6321 106.219 94.2902 110.32C94.2902 110.32 96.2902 112.58 94.2302 113.81C92.1702 115.04 87.0002 116.06 87.0002 119.15C87.0002 122.24 90.0002 124.26 95.0702 125.06C100.14 125.86 111.07 128.06 112 128.22Z" fill-rule="evenodd"  fill="#EBEBEB" >
</path>
<path d="M84.94 94.9403C83.94 94.0003 83.1 93.2803 82.55 92.7703L81.93 92.2103L81.73 92.0103C81.807 92.062 81.8805 92.1187 81.95 92.1803C82.1 92.3203 82.32 92.5003 82.59 92.7303L85 94.8503C87.1 96.7003 90.12 99.3903 93.84 102.73C101.29 109.41 111.49 118.73 122.73 129.04C133.97 139.35 147 151.48 154.4 158.19L154.26 158.34C146.82 151.66 133.79 139.57 122.55 129.25C111.31 118.93 101.13 109.59 93.72 102.88L84.94 94.9403Z"   fill="#E0E0E0" >
</path>
<path d="M102.64 118.35L96.77 118.12L95 118.06C94.7618 118.071 94.5231 118.051 94.29 118C94.5259 117.972 94.7642 117.972 95 118L96.78 118C98.28 118 100.36 118 102.65 118.14L108.51 118.4L110.29 118.47C110.506 118.45 110.724 118.45 110.94 118.47C110.726 118.515 110.508 118.535 110.29 118.53C109.86 118.53 109.29 118.53 108.5 118.53C107 118.53 104.93 118.44 102.64 118.35Z"   fill="#E0E0E0" >
</path>
<path d="M111.27 117.7C111.19 117.7 111.1 113.41 111.07 108.13C111.04 102.85 111.07 98.5503 111.16 98.5503C111.25 98.5503 111.32 102.84 111.35 108.12C111.38 113.4 111.34 117.7 111.27 117.7Z"   fill="#E0E0E0" >
</path>
<path d="M127.81 134.32C127.839 134.099 127.889 133.882 127.96 133.67C128.1 133.21 128.26 132.67 128.46 131.93C128.88 130.45 129.46 128.41 129.99 126.14C130.52 123.87 130.99 121.8 131.26 120.29C131.41 119.59 131.52 118.99 131.62 118.51C131.647 118.288 131.701 118.07 131.78 117.86C131.789 118.085 131.772 118.31 131.73 118.53C131.67 118.96 131.59 119.53 131.46 120.33C131.21 121.84 130.82 123.93 130.27 126.21C129.72 128.49 129.12 130.52 128.65 131.99C128.41 132.72 128.22 133.3 128.07 133.71C128.008 133.923 127.921 134.128 127.81 134.32Z"   fill="#E0E0E0" >
</path>
<path d="M113.13 137.9C112.93 137.951 112.726 137.984 112.52 138C112.703 137.904 112.898 137.833 113.1 137.79L114.72 137.34C116.09 136.96 117.98 136.47 120.08 135.94C122.18 135.41 124.08 134.94 125.46 134.62L127.09 134.25C127.29 134.201 127.494 134.167 127.7 134.15C127.516 134.244 127.321 134.314 127.12 134.36L125.51 134.81C124.14 135.19 122.24 135.68 120.15 136.21C118.06 136.74 116.15 137.21 114.77 137.53L113.13 137.9Z"   fill="#E0E0E0" >
</path>
<path d="M128.08 153.68C129.83 153.19 132.25 152.54 134.93 151.83C137.61 151.12 140.04 150.5 141.81 150.06L143.9 149.56C144.152 149.489 144.41 149.438 144.67 149.41C144.433 149.521 144.185 149.608 143.93 149.67L141.86 150.26C140.11 150.74 137.68 151.4 135 152.1C132.32 152.8 129.89 153.43 128.13 153.87L126.04 154.37C125.787 154.449 125.525 154.499 125.26 154.52C125.501 154.412 125.752 154.328 126.01 154.27L128.08 153.68Z"   fill="#E0E0E0" >
</path>
<path d="M145.09 146.39C144.83 147.33 144.61 148.08 144.45 148.6C144.377 148.873 144.287 149.14 144.18 149.4C144.211 149.119 144.268 148.841 144.35 148.57C144.49 148 144.67 147.24 144.9 146.34C145.36 144.45 145.99 141.84 146.6 138.94C147.21 136.04 147.71 133.39 148.05 131.48C148.22 130.56 148.36 129.8 148.46 129.21C148.499 128.929 148.559 128.652 148.64 128.38C148.64 128.665 148.617 128.949 148.57 129.23C148.5 129.77 148.4 130.55 148.25 131.51C147.96 133.44 147.5 136.09 146.88 138.99C146.26 141.89 145.6 144.51 145.09 146.39Z"   fill="#E0E0E0" >
</path>
<path d="M406 50.0002C409 47.1702 412.82 45.1702 416.84 45.3702C420.86 45.5702 424.84 48.5002 425.44 52.5302C426.04 56.5602 423.3 60.3202 420.44 63.2302C416.227 67.5648 411.41 71.2695 406.14 74.2302C405.13 74.6545 404.282 75.3902 403.72 76.3302C402.91 78.1202 404.48 80.1602 406.25 80.9702C408.25 81.8802 410.53 81.9102 412.68 82.4002C414.83 82.8902 417.08 84.1102 417.68 86.2502C418.52 89.2502 415.81 91.9602 413.25 93.6602C408.129 97.0799 402.455 99.5901 396.48 101.08C394.35 101.61 392.12 102.08 390.31 103.3C388.5 104.52 387.2 107 388 109C388.8 111 391.29 112 393.48 111.82C395.67 111.64 397.73 110.69 399.86 110.14C403.86 109.14 408.77 109.9 410.86 113.48C412.132 115.955 412.169 118.884 410.96 121.39C409.742 123.85 408.042 126.04 405.96 127.83C399.094 134.474 390.588 139.178 381.31 141.46C372.09 143.58 363.76 143.53 355.26 139.35L355.28 139.38C342 127.75 340.7 108.7 343.08 92.0002C343.48 89.2002 343.49 86.2102 345.08 83.8902C346.67 81.5702 349.97 80.2302 352.36 81.6802C354.36 82.8902 354.98 85.4102 355.93 87.5402C357.195 90.3848 359.241 92.8122 361.83 94.5402C363.52 95.6602 365.67 96.4602 367.54 95.6802C370.1 94.6102 370.74 91.3002 371.03 88.5002C371.557 83.3002 372.083 78.0969 372.61 72.8902C372.741 70.0838 373.329 67.3174 374.35 64.7002C375.5 62.1402 377.68 59.8902 380.42 59.4302C383.16 58.9702 386.27 60.8602 386.53 63.6502C386.518 64.8157 386.421 65.9788 386.24 67.1302C386.05 68.3273 386.614 69.5186 387.66 70.1302C388.74 70.5802 389.94 69.9102 390.86 69.1302C394.04 66.6202 396.39 63.2002 398.61 59.7902C400.83 56.3802 403 52.8302 406 50.0002Z"   fill="#F5F5F5" >
</path>
<path d="M421.44 48.51L420.53 49.16C419.73 49.72 418.53 50.56 417.06 51.68C412.843 54.8309 408.865 58.2904 405.16 62.03C402.81 64.4 400.33 67.09 397.73 70.03C395.13 72.97 392.38 76.15 389.61 79.59C386.679 83.1605 383.952 86.8931 381.44 90.77C380.13 92.77 378.93 94.91 377.71 97.08L374 103.68C369.247 112.028 364.963 120.634 361.17 129.46L360.76 129.31C364.539 120.457 368.819 111.826 373.58 103.46C374.84 101.23 376.07 99.03 377.29 96.86C378.51 94.69 379.73 92.55 381.04 90.52C383.578 86.637 386.326 82.8948 389.27 79.31C392.06 75.87 394.83 72.71 397.44 69.77C400.05 66.83 402.56 64.15 404.94 61.77C408.664 58.0426 412.676 54.6152 416.94 51.52C418.45 50.42 419.65 49.61 420.47 49.07L421.41 48.46C421.513 48.3848 421.624 48.3211 421.74 48.27C421.647 48.3578 421.546 48.438 421.44 48.51Z"   fill="#E0E0E0" >
</path>
<path d="M380.67 60.6104C380.79 61.3904 380.91 62.5304 381.02 63.9304C381.25 66.7504 381.36 70.6504 381.34 74.9304C381.32 79.2104 381.29 83.0104 381.27 85.9304L381.27 89.2704C381.295 89.6888 381.268 90.1087 381.19 90.5204C381.106 90.119 381.059 89.7105 381.05 89.3004C380.98 88.5104 380.93 87.3704 380.88 85.9604C380.79 83.1404 380.79 79.2404 380.81 74.9604C380.83 70.6804 380.81 66.7704 380.64 63.9604C380.57 62.5504 380.51 61.4104 380.45 60.6304C380.4 60.2219 380.4 59.8089 380.45 59.4004C380.562 59.7958 380.636 60.2009 380.67 60.6104Z"   fill="#E0E0E0" >
</path>
<path d="M382.56 90.1404C383.47 89.9304 384.79 89.6404 386.43 89.3504C389.72 88.7604 394.29 88.1304 399.36 87.7204C403.684 87.3647 408.023 87.2279 412.36 87.3104C414.02 87.3104 415.36 87.4304 416.3 87.5104C416.801 87.5173 417.3 87.5743 417.79 87.6804C417.308 87.7209 416.823 87.7209 416.34 87.6804C415.41 87.6804 414.06 87.6804 412.4 87.6804C409.08 87.6804 404.49 87.8404 399.4 88.2404C394.31 88.6404 389.78 89.2404 386.49 89.7204C384.84 89.9604 383.49 90.1904 382.6 90.3404C382.127 90.4474 381.645 90.5143 381.16 90.5404C381.612 90.3596 382.081 90.2256 382.56 90.1404Z"   fill="#E0E0E0" >
</path>
<path d="M354.96 104.75C356.63 111.39 358.16 117.38 359.36 121.75L360.79 126.86C360.94 127.41 361.07 127.86 361.17 128.25C361.222 128.392 361.255 128.54 361.27 128.69C361.182 128.547 361.115 128.392 361.07 128.23L360.6 126.87C360.19 125.68 359.6 123.95 359.01 121.8C357.72 117.5 356.13 111.51 354.46 104.88C352.79 98.2502 351.26 92.2502 350.06 87.9302L348.63 82.8202C348.48 82.2702 348.35 81.8202 348.25 81.4302C348.194 81.2691 348.16 81.1007 348.15 80.9302C348.229 81.0815 348.296 81.2386 348.35 81.4002C348.47 81.7702 348.63 82.2202 348.82 82.7602C349.23 83.9502 349.77 85.6802 350.41 87.8302C351.7 92.1202 353.29 98.1102 354.96 104.75Z"   fill="#E0E0E0" >
</path>
<path d="M363.23 128.49L361.78 128.7C361.611 128.729 361.439 128.729 361.27 128.7C361.429 128.641 361.593 128.594 361.76 128.56L363.2 128.25L368.48 127.14C372.94 126.21 379.09 124.85 385.88 123.34C392.67 121.83 398.83 120.52 403.31 119.68C405.55 119.26 407.37 118.94 408.63 118.74L410.08 118.52C410.247 118.482 410.419 118.465 410.59 118.47C410.436 118.546 410.27 118.593 410.1 118.61L408.67 118.93L403.38 120.03C398.92 120.97 392.78 122.32 385.99 123.84C379.2 125.36 372.99 126.65 368.55 127.49C366.31 127.92 364.49 128.24 363.23 128.49Z"   fill="#E0E0E0" >
</path>
<path d="M473.37 465.82C473.37 465.97 373.37 466.09 250.01 466.09C126.65 466.09 26.6299 466 26.6299 465.82C26.6299 465.64 126.63 465.56 250.01 465.56C373.39 465.56 473.37 465.68 473.37 465.82Z"   fill="#263238" >
</path>
<path d="M315.7 223.46C316.246 214.2 316.8 204.94 317.36 195.68C317.43 194.56 317.6 193.27 318.56 192.68C319.507 192.306 320.573 192.38 321.46 192.88C337.88 199.49 349.93 217.81 351.37 235.44L315.7 223.46Z"   fill="#FF725E" >
</path>
<g opacity="0.30000000000000004">
<path d="M334.68 225.15C334.862 226.258 334.627 227.395 334.02 228.34C333.39 229.025 332.501 229.414 331.57 229.41C330.648 229.4 329.732 229.259 328.85 228.99C326.64 228.42 324.31 227.8 322.67 226.2C321.171 224.611 320.312 222.524 320.26 220.34C320.22 218.175 320.442 216.012 320.92 213.9L323.72 218.68L320.72 203.2C320.624 202.925 320.654 202.622 320.8 202.37C320.97 202.15 321.45 202.23 321.42 202.51L321.28 202.28C329.077 207.389 334.035 215.851 334.68 225.15Z" fill-rule="evenodd"  fill="#FFFFFF" >
</path>
</g>
<path d="M220.51 243.18C211.941 233.006 207.014 220.262 206.51 206.97L215.66 211.28L213.37 208.49C226.722 209.603 239.112 215.886 247.9 226L220.51 243.18Z"   fill="#FF725E" >
</path>
<g opacity="0.30000000000000004">
<path d="M212.45 216.9C212.38 216.3 212.45 215.51 213.01 215.31C213.433 215.236 213.866 215.357 214.19 215.64L230.7 226.43C229.983 225.401 229.536 224.207 229.4 222.96L236.4 228.09C236.937 228.389 237.332 228.889 237.5 229.48C237.507 230.148 237.19 230.778 236.65 231.17C234.278 233.311 230.954 234.048 227.9 233.11L230.9 235.72C229.094 236.886 226.891 237.266 224.8 236.77C224.592 237.779 225.02 238.813 225.88 239.38L225.58 239.14C218.316 233.861 213.563 225.81 212.45 216.9Z" fill-rule="evenodd"  fill="#FFFFFF" >
</path>
</g>
<path d="M425.62 342.58C425.62 342.58 405.4 321.07 396.9 301.22C392.84 291.833 388.003 282.802 382.44 274.22C386.27 267.62 389.68 260.15 391.24 252.6C386.941 257.586 382.04 262.02 376.65 265.8C376.21 265.18 375.76 264.57 375.3 263.95C379.823 259.858 382.838 254.363 383.86 248.35L363.65 247.48C364.283 246.569 364.854 245.617 365.36 244.63C355.432 236.097 344.316 229.053 332.36 223.72C309.11 210.49 257.36 206.12 232.16 227.63C209.59 240.79 203.54 257.63 185.76 261.8L175.22 260.65C175.22 260.65 171.12 282.65 184.59 292.48L174.59 290.16C174.59 290.16 176.43 298.92 186.27 308.58L180.13 307.83C180.13 307.83 182.79 321.61 191.29 324.92C191.29 324.92 178.01 326.58 174.29 321.61C174.29 321.61 169.87 342.21 189.98 349.98C189.98 349.98 129.72 357.04 146.66 430.81C150.66 448.04 174.41 460.44 201.76 466.43L398.76 465.66C410.76 461.74 425.08 421.98 425.61 405.99C426.14 390 418.18 359.11 418.18 359.11L425.64 369.04L407 330.45C407 330.45 419.8 343.68 425.62 342.58Z"   fill="#FF725E" >
</path>
<path d="M181.84 361.19C170.53 360.51 159.42 369.3 157.49 380.47C164.848 375.589 173.251 372.506 182.02 371.47C174.949 377.973 172.629 388.168 176.19 397.09C179.136 389.218 185.178 382.897 192.91 379.6C187.595 386.011 186.017 394.734 188.75 402.6L181.84 361.19Z" fill-rule="evenodd"  fill="#FF725E" >
</path>
<path d="M193.11 379.71C190.945 382.287 189.366 385.303 188.48 388.55C187.804 391.014 187.517 393.568 187.63 396.12C187.708 397.737 187.949 399.342 188.35 400.91C188.48 401.45 188.62 401.86 188.69 402.13C188.726 402.291 188.746 402.455 188.75 402.62C188.682 402.489 188.629 402.352 188.59 402.21C188.5 401.94 188.34 401.54 188.18 401.01C187.74 399.436 187.465 397.821 187.36 396.19C187.206 393.612 187.466 391.026 188.13 388.53C188.999 385.228 190.579 382.156 192.76 379.53L192.99 379.84C185.335 383.147 179.353 389.424 176.42 397.23L176.2 397.83L175.96 397.24C173.516 391.087 173.781 384.188 176.69 378.24C177.957 375.642 179.708 373.311 181.85 371.37L182.05 371.82C173.323 372.849 164.955 375.897 157.61 380.72L157.17 381.01L157.27 380.49C157.714 378.077 158.559 375.754 159.77 373.62C160.843 371.686 162.19 369.918 163.77 368.37C166.294 365.816 169.345 363.843 172.71 362.59C174.862 361.784 177.125 361.312 179.42 361.19C180.22 361.19 180.83 361.19 181.23 361.19L181.7 361.19L181.85 361.19L181.7 361.19L181.23 361.19C180.82 361.19 180.23 361.19 179.43 361.19C177.158 361.364 174.924 361.873 172.8 362.7C169.492 363.973 166.5 365.948 164.03 368.49C162.491 370.024 161.181 371.772 160.14 373.68C158.967 375.781 158.149 378.062 157.72 380.43L157.37 380.2C164.765 375.319 173.2 372.237 182 371.2L182.81 371.11L182.2 371.65C180.124 373.55 178.427 375.827 177.2 378.36C174.337 384.184 174.069 390.947 176.46 396.98L176 396.98C177.584 392.792 180.053 388.995 183.24 385.85C186.013 383.106 189.285 380.917 192.88 379.4L193.64 379.08L193.11 379.71Z" fill-rule="evenodd"  fill="#263238" >
</path>
<path d="M418.81 407.87C418.71 407.92 417.94 405.97 415.99 403.26C410.834 396.093 402.548 391.84 393.72 391.83C390.38 391.83 388.34 392.33 388.33 392.22C388.786 392.054 389.259 391.936 389.74 391.87C391.059 391.621 392.397 391.487 393.74 391.47C402.739 391.267 411.233 395.623 416.32 403.05C417.081 404.146 417.75 405.303 418.32 406.51C418.534 406.943 418.699 407.399 418.81 407.87Z"   fill="#263238" >
</path>
<g opacity="0.30000000000000004">
<path d="M305.05 427.12C304.183 432.448 305.346 437.908 308.31 442.42C310.352 441.269 311.998 439.525 313.03 437.42C312.646 445.316 315.541 453.021 321.03 458.71L317.49 444.9C316.22 439.9 314.99 435.65 315.33 430.52C315.69 425.04 318.95 420.42 321.48 415.88C318 417.39 313.97 424.23 310.54 428.4C310.123 421.047 313.106 413.91 318.63 409.04L318.87 408.84C311.61 410 302.37 415.49 299 422C298.28 423.39 298.94 423.58 299 425.14C299.002 426.744 299.918 428.207 301.36 428.91C302.084 429.204 302.9 429.178 303.603 428.836C304.307 428.495 304.832 427.871 305.05 427.12Z"   fill="#000000" >
</path>
</g>
<path d="M309.66 418.43C309.553 418.771 309.427 419.105 309.28 419.43C309.269 419.344 309.269 419.256 309.28 419.17C309.33 418.99 309.39 418.73 309.5 418.4C309.829 417.424 310.255 416.482 310.77 415.59C311.58 414.179 312.591 412.892 313.77 411.77C315.34 410.28 317.188 409.114 319.21 408.34L320.55 407.83L319.39 408.68C316.663 410.735 314.471 413.418 313 416.5C311.219 420.134 310.502 424.196 310.93 428.22L310.45 428.12C311.739 425.868 313.246 423.747 314.95 421.79C317.578 418.845 320.372 416.054 323.32 413.43L323.67 413.79C320.549 417.019 318.233 420.939 316.91 425.23C315.836 428.625 315.382 432.185 315.57 435.74C315.686 438.083 316.085 440.403 316.76 442.65C316.98 443.44 317.24 444.02 317.36 444.43C317.423 444.637 317.473 444.847 317.51 445.06C317.395 444.874 317.302 444.676 317.23 444.47C317.08 444.07 316.79 443.47 316.55 442.7C315.8 440.455 315.346 438.122 315.2 435.76C314.963 432.164 315.387 428.554 316.45 425.11C317.758 420.733 320.093 416.732 323.26 413.44L323.61 413.8C320.687 416.42 317.913 419.201 315.3 422.13C313.612 424.056 312.121 426.147 310.85 428.37L310.46 429.06L310.37 428.28C309.928 424.156 310.677 419.991 312.53 416.28C314.064 413.135 316.343 410.413 319.17 408.35L319.36 408.69C317.373 409.43 315.551 410.555 314 412C312.83 413.085 311.82 414.331 311 415.7C310.48 416.572 310.032 417.485 309.66 418.43Z" fill-rule="evenodd"  fill="#263238" >
</path>
<path d="M198.86 444C202.788 448.358 207.956 451.408 213.67 452.74C214.302 452.993 215.02 452.894 215.56 452.48C216.14 451.84 215.66 450.83 215.18 450.12L208.83 440.74C213.35 444.313 218.711 446.668 224.4 447.58C225.35 447.73 226.52 447.73 227 446.91C227.278 446.179 227.192 445.359 226.77 444.7C225.77 442.56 224.77 440.45 223.59 438.39L198.86 444Z" fill-rule="evenodd"  fill="#FF725E" >
</path>
<path d="M208.68 440.91L209.06 440.56L210.16 442.19L213.7 447.43L215.39 449.92C215.689 450.347 215.91 450.825 216.04 451.33C216.196 451.901 215.966 452.507 215.47 452.83C215 453.068 214.459 453.125 213.95 452.99C213.48 452.91 213.06 452.77 212.62 452.67C211.75 452.42 210.92 452.16 210.14 451.86C208.68 451.312 207.268 450.643 205.92 449.86C203.964 448.736 202.154 447.376 200.53 445.81C199.96 445.25 199.53 444.81 199.27 444.48C199.119 444.325 198.985 444.154 198.87 443.97C199.045 444.095 199.206 444.24 199.35 444.4C199.64 444.7 200.08 445.13 200.67 445.66C202.329 447.152 204.15 448.454 206.1 449.54C207.443 450.291 208.844 450.933 210.29 451.46C211.07 451.75 211.89 452 212.74 452.24C213.59 452.48 214.54 452.81 215.22 452.43C215.545 452.212 215.685 451.802 215.56 451.43C215.442 450.99 215.242 450.576 214.97 450.21C214.42 449.4 213.86 448.57 213.28 447.73C212.133 446.03 210.95 444.283 209.73 442.49L208.63 440.86L207.63 439.46L209 440.5C213.312 443.912 218.393 446.218 223.8 447.22C224.504 447.408 225.237 447.455 225.96 447.36C226.592 447.277 227.052 446.717 227.01 446.08C226.94 445.475 226.75 444.89 226.45 444.36C226.19 443.83 225.94 443.36 225.71 442.85L224.54 440.44L223.82 438.9C223.718 438.728 223.641 438.543 223.59 438.35C223.712 438.504 223.816 438.672 223.9 438.85L224.7 440.35C225.06 441.02 225.47 441.82 225.95 442.73C226.203 443.197 226.463 443.697 226.73 444.23C227.062 444.791 227.277 445.413 227.36 446.06C227.387 446.447 227.274 446.831 227.04 447.14C226.783 447.446 226.431 447.657 226.04 447.74C225.267 447.858 224.478 447.821 223.72 447.63C222.067 447.346 220.439 446.935 218.85 446.4C215.168 445.171 211.727 443.314 208.68 440.91Z" fill-rule="evenodd"  fill="#263238" >
</path>
<g opacity="0.30000000000000004">
<path d="M223.53 381.78C225.74 385.51 228.975 388.526 232.85 390.47C232.628 388.416 231.776 386.48 230.41 384.93C234.629 388.949 239.629 392.06 245.1 394.07C240.374 396.174 234.926 395.878 230.456 393.275C225.986 390.672 223.041 386.078 222.54 380.93L223.53 381.78Z"   fill="#000000" >
</path>
</g>
<g opacity="0.30000000000000004">
<path d="M310.61 333.84C319.24 333.11 327.92 332.84 336.45 331.39C344.98 329.94 344.59 328.93 351.37 323.54C358.15 318.15 365.48 312.81 365.37 304.15C352.63 319.75 340.04 324.58 320.43 329.15C300.82 333.72 280.43 333.62 260.32 332.69C238.19 331.69 214.96 329.25 196.77 316.6L196.77 316.61C204.71 331.88 230.39 339.42 250.53 339.75C256.75 339.84 265.53 344.44 271.69 343.84C285.52 342.51 296.75 335.06 310.61 333.84Z"   fill="#000000" >
</path>
</g>
<path d="M270.77 215.48C271.368 216.264 271.926 217.078 272.44 217.92C272.44 217.92 272.21 217.75 271.86 217.37C271.362 216.84 270.898 216.279 270.47 215.69C269.047 213.755 267.875 211.649 266.98 209.42C266.083 207.174 265.485 204.821 265.2 202.42C265.106 201.7 265.052 200.976 265.04 200.25C265.02 199.996 265.037 199.74 265.09 199.49C265.18 199.49 265.26 200.62 265.56 202.41C265.956 204.74 266.593 207.022 267.46 209.22C268.347 211.414 269.456 213.512 270.77 215.48Z"   fill="#FF725E" >
</path>
<path d="M270.43 206.25C270.61 208.452 271.126 210.614 271.96 212.66C272.6 214.24 273.15 215.15 273.07 215.19C272.99 215.23 272.88 215 272.61 214.6C272.234 214.028 271.899 213.43 271.61 212.81C269.69 208.667 269.318 203.974 270.56 199.58C270.738 198.923 270.969 198.281 271.25 197.66C271.46 197.18 271.59 196.94 271.62 197C271.71 197 271.31 198 270.92 199.67C270.426 201.826 270.261 204.045 270.43 206.25Z"   fill="#FF725E" >
</path>
<path d="M200.61 349.99L199.02 350.07L193.16 350.32C186.724 350.525 180.31 351.194 173.97 352.32C167.64 353.476 161.534 355.63 155.88 358.7C154.182 359.655 152.543 360.711 150.97 361.86C149.86 362.75 149.26 363.23 149.23 363.2C149.349 363.056 149.483 362.925 149.63 362.81C149.9 362.57 150.29 362.19 150.84 361.81C152.377 360.589 154.001 359.483 155.7 358.5C161.344 355.302 167.487 353.077 173.87 351.92C180.234 350.761 186.682 350.119 193.15 350C195.63 349.94 197.63 349.92 199.01 349.92L200.61 349.92C200.796 349.904 200.984 349.904 201.17 349.92C200.987 349.966 200.799 349.989 200.61 349.99Z"   fill="#FF725E" >
</path>
<path d="M273.57 205.84C273.766 204.829 274.168 203.869 274.75 203.02C275.394 202.123 276.206 201.359 277.14 200.77C278.949 199.674 281.025 199.1 283.14 199.11C284.831 199.126 286.513 199.369 288.14 199.83C289.53 200.2 290.63 200.58 291.39 200.83C291.803 200.96 292.201 201.13 292.58 201.34C292.58 201.43 290.87 200.86 288.09 200.18C286.473 199.782 284.814 199.584 283.15 199.59C281.127 199.604 279.147 200.167 277.42 201.22C276.543 201.766 275.779 202.476 275.17 203.31C274.622 204.099 274.238 204.99 274.04 205.93C273.754 207.559 273.826 209.231 274.25 210.83C274.94 213.59 275.68 215.23 275.58 215.27C275.353 214.916 275.168 214.537 275.03 214.14C274.576 213.094 274.195 212.018 273.89 210.92C273.402 209.272 273.293 207.536 273.57 205.84Z"   fill="#FF725E" >
</path>
<path d="M442.61 451.94C441.53 444.76 438.01 437.69 432 433.6C425.99 429.51 417.34 429.03 411.62 433.52L387.88 465.62L438.42 465.83C441.24 463.22 443.18 455.74 442.61 451.94Z"   fill="#FF725E" >
</path>
<g opacity="0.30000000000000004">
<path d="M409 465.16C413.27 463.38 416.42 459.55 418.36 455.35C420.3 451.15 421.15 446.55 422 442C422.7 438.23 423.36 434.16 421.72 430.68C420.924 430.637 420.163 431.017 419.72 431.68C419.281 432.344 418.96 433.078 418.77 433.85C414.86 446.19 408.83 456.85 398.98 465.2L409 465.16Z"   fill="#000000" >
</path>
</g>
<g opacity="0.30000000000000004">
<path d="M226.82 303.87C219.7 302.93 212.94 300.2 206.53 296.98C199.21 293.3 192.16 288.9 186.48 282.98C180.8 277.06 176.14 268.79 175.2 260.66L185.74 261.81C185.74 261.81 193.85 260.95 206.46 248.75C220.24 235.43 222.75 233.8 233.07 226.86C241.073 221.567 249.755 217.379 258.88 214.41C263.88 228.82 264.51 244.41 263.97 259.6C263.7 267.18 263.13 274.84 260.76 282.05C258.39 289.26 254.04 296.05 247.58 300.05C241.48 303.82 233.94 304.81 226.82 303.87Z"   fill="#FFFFFF" >
</path>
</g>
<g opacity="0.30000000000000004">
<path d="M302.44 303.23C306.536 300.92 311.67 301.619 315 304.94C318.275 300.659 323.738 298.669 329 299.84C325.875 301.069 322.965 302.787 320.38 304.93C317.91 307.2 316.13 310.46 316.44 313.8C313.35 310.472 309.796 307.606 305.89 305.29C304.27 304.29 302.14 303.48 300.62 304.6L302.44 303.23Z"   fill="#000000" >
</path>
</g>
<path d="M335.49 416.86C335.91 416.53 336.27 416.3 336.49 416.14C336.71 415.98 336.86 415.91 336.87 415.93C336.466 416.316 336.042 416.68 335.6 417.02C334.448 417.994 333.36 419.039 332.34 420.15C325.444 427.554 322.326 437.712 323.88 447.71C324.102 449.202 324.42 450.678 324.83 452.13C325.012 452.646 325.159 453.174 325.27 453.71C325.188 453.59 325.124 453.459 325.08 453.32C324.98 453.05 324.81 452.67 324.64 452.15C324.153 450.705 323.781 449.224 323.53 447.72C321.759 437.6 324.937 427.244 332.08 419.86C333.132 418.768 334.273 417.765 335.49 416.86Z"   fill="#263238" >
</path>
<path d="M330 432.76C330.33 427.05 333.21 421.86 335.88 416.76C342.22 404.76 348.38 391.6 356.74 381.23L356.77 381.27C360.86 378.13 366.14 374.83 370.77 377.04C373.371 378.466 375.141 381.041 375.54 383.98C375.9 386.882 375.717 389.825 375 392.66C371.642 409.201 364.346 424.688 353.73 437.81C349.88 442.57 344.4 447.39 338.42 446.08C332.84 444.85 329.67 438.47 330 432.76Z"   fill="#FF725E" >
</path>
<path d="M330.14 436.52C329.648 433.804 329.795 431.01 330.57 428.36C332 423.18 334.7 418.84 336.82 414.66C338.94 410.48 341.04 406.6 342.9 403.05C345.816 397.43 349.062 391.987 352.62 386.75C353.9 384.91 354.96 383.52 355.69 382.6L356.54 381.6C356.611 381.487 356.688 381.376 356.77 381.27C356.69 381.401 356.603 381.528 356.51 381.65L355.71 382.72C355 383.66 353.97 385.07 352.71 386.92C349.225 392.194 346.033 397.655 343.15 403.28L337.15 414.92C335.03 419.12 332.36 423.46 330.97 428.54C330.223 431.12 330.083 433.837 330.56 436.48C331.063 439.231 332.425 441.751 334.45 443.68C335.499 444.625 336.756 445.311 338.12 445.68C339.516 446.041 340.977 446.079 342.39 445.79C345.282 445.044 347.921 443.535 350.03 441.42C352.188 439.332 354.152 437.052 355.9 434.61C357.7 432.25 359.32 429.81 360.9 427.39C366.5 418.448 370.737 408.721 373.47 398.53C374.07 396.263 374.583 394.057 375.01 391.91C375.462 389.875 375.667 387.794 375.62 385.71C375.5 381.78 373.44 378.21 370.51 377.02C369.163 376.451 367.683 376.274 366.24 376.51C365.023 376.715 363.839 377.082 362.72 377.6C361.169 378.335 359.687 379.205 358.29 380.2L357.19 380.98C356.95 381.15 356.81 381.23 356.81 381.23L357.16 380.94C357.4 380.74 357.75 380.47 358.23 380.12C359.606 379.08 361.079 378.175 362.63 377.42C363.759 376.869 364.961 376.482 366.2 376.27C369.491 375.664 372.8 377.236 374.41 380.17C375.377 381.854 375.916 383.749 375.98 385.69C376.048 387.802 375.857 389.915 375.41 391.98C374.98 394.14 374.48 396.36 373.89 398.64C371.177 408.879 366.947 418.654 361.34 427.64C359.78 430.08 358.15 432.52 356.34 434.9C354.574 437.37 352.589 439.676 350.41 441.79C348.232 443.97 345.506 445.522 342.52 446.28C341.03 446.582 339.49 446.538 338.02 446.15C336.574 445.751 335.244 445.014 334.14 444C332.045 441.995 330.644 439.375 330.14 436.52Z"   fill="#263238" >
</path>
<g opacity="0.30000000000000004">
<path d="M371.41 399.81C371.275 400.782 370.877 401.698 370.26 402.46C369.604 403.22 368.531 403.467 367.61 403.07C366.61 402.52 366.3 401.07 365.24 400.63C364.18 400.19 362.78 401.18 361.5 401.5C359.694 401.849 357.893 400.879 357.19 399.18C356.726 398.002 356.754 396.687 357.27 395.53L357.27 395.58C358.27 392.76 360.4 391.95 362.69 391.12C364.98 390.29 367.75 390.38 369.59 391.98C371.71 393.82 371.98 397.06 371.41 399.81Z"   fill="#000000" >
</path>
</g>
<g opacity="0.30000000000000004">
<path d="M361.63 381.45C362.683 381.919 363.317 383.012 363.2 384.16C363.15 385.415 362.876 386.652 362.39 387.81C362.04 388.81 361.45 389.92 360.39 389.96C359.785 389.944 359.232 389.614 358.93 389.09C358.643 388.568 358.482 387.986 358.46 387.39C358.36 386.027 358.572 384.659 359.08 383.39C359.298 382.729 359.709 382.147 360.26 381.72C360.83 381.288 361.619 381.288 362.19 381.72L361.63 381.45Z" fill-rule="evenodd"  fill="#000000" >
</path>
</g>
<g opacity="0.30000000000000004">
<path d="M371.05 385.85C371.273 385.188 371.687 384.607 372.24 384.18C372.81 383.745 373.6 383.745 374.17 384.18L373.61 383.91C374.664 384.379 375.297 385.472 375.18 386.62C375.129 387.875 374.855 389.111 374.37 390.27C374.02 391.27 373.42 392.38 372.37 392.42C371.765 392.406 371.211 392.076 370.91 391.55C370.614 391.031 370.452 390.447 370.44 389.85C370.342 388.488 370.551 387.121 371.05 385.85Z" fill-rule="evenodd"  fill="#000000" >
</path>
</g>
<g opacity="0.30000000000000004">
<path d="M365.85 386.97C365.561 386.452 365.404 385.872 365.39 385.28C365.281 383.918 365.49 382.548 366 381.28C366.217 380.615 366.632 380.033 367.19 379.61C367.757 379.18 368.542 379.18 369.11 379.61L368.55 379.33C369.599 379.81 370.229 380.902 370.12 382.05C370.065 383.302 369.791 384.534 369.31 385.69C368.95 386.69 368.36 387.81 367.31 387.84C366.704 387.826 366.15 387.496 365.85 386.97Z" fill-rule="evenodd"  fill="#000000" >
</path>
</g>
<g opacity="0.30000000000000004">
<path d="M331.88 449.19C330.1 445.66 329.88 441.56 330.06 437.62C331.97 440.81 334.12 444.21 337.58 445.62C340.674 446.657 344.067 446.292 346.87 444.62C349.63 442.948 352.044 440.762 353.98 438.18C358.265 432.95 361.786 427.139 364.44 420.92L364.67 420.21C363.872 426.261 362.226 432.169 359.78 437.76C357.314 443.374 353.543 448.318 348.78 452.18C346.58 453.9 344 455.38 341.21 455.45C337.26 455.55 333.66 452.72 331.88 449.19Z"   fill="#000000" >
</path>
</g>
<path d="M180.57 436.37C185.38 433.27 186.1 426.18 183.8 420.95C181.5 415.72 177 411.83 172.69 408C162.55 399 152.17 388.82 140.69 382L140.7 382.07C135.78 380.56 129.7 379.31 126.08 383.01C124.156 385.267 123.415 388.3 124.08 391.19C124.756 394.037 125.956 396.733 127.62 399.14C136.559 413.456 148.81 425.413 163.34 434C168.61 437.1 175.43 439.7 180.57 436.37Z"   fill="#FF725E" >
</path>
<path d="M124.31 392.96C123.691 391.12 123.533 389.156 123.85 387.24C124.329 383.928 126.876 381.297 130.17 380.71C131.406 380.481 132.668 380.42 133.92 380.53C135.638 380.702 137.335 381.037 138.99 381.53C139.56 381.69 139.99 381.82 140.27 381.92L140.7 382.08L140.26 381.97L138.96 381.63C137.302 381.189 135.609 380.891 133.9 380.74C132.669 380.65 131.431 380.724 130.22 380.96C128.783 381.251 127.458 381.945 126.4 382.96C124.07 385.11 123.4 389.17 124.66 392.89C125.344 394.857 126.264 396.734 127.4 398.48C128.56 400.34 129.813 402.23 131.16 404.15C137.293 412.735 144.671 420.359 153.05 426.77C155.35 428.5 157.73 430.21 160.24 431.77C162.734 433.445 165.375 434.891 168.13 436.09C170.842 437.338 173.842 437.829 176.81 437.51C178.25 437.291 179.62 436.74 180.81 435.9C181.957 435.068 182.89 433.975 183.53 432.71C184.749 430.196 185.141 427.361 184.65 424.61C184.176 421.966 183.091 419.47 181.48 417.32C178.4 413.04 174.38 409.91 170.93 406.72L161.21 397.93C156.539 393.661 151.635 389.655 146.52 385.93C144.7 384.63 143.24 383.68 142.25 383.04L141.12 382.32L140.7 382.07C140.7 382.07 140.84 382.13 141.11 382.28L142.26 382.96C143.26 383.57 144.75 384.5 146.6 385.77C151.765 389.433 156.711 393.396 161.41 397.64L171.18 406.38C174.63 409.55 178.68 412.67 181.83 417.02C183.487 419.229 184.606 421.793 185.1 424.51C185.613 427.368 185.211 430.315 183.95 432.93C183.265 434.262 182.279 435.416 181.07 436.3C179.827 437.183 178.396 437.764 176.89 438C173.815 438.346 170.704 437.848 167.89 436.56C165.099 435.343 162.422 433.881 159.89 432.19C157.37 430.59 154.98 428.87 152.67 427.14C148.287 423.752 144.174 420.027 140.37 416C136.909 412.353 133.715 408.463 130.81 404.36C129.46 402.43 128.21 400.52 127.06 398.65C125.914 396.873 124.99 394.962 124.31 392.96Z"   fill="#263238" >
</path>
<g opacity="0.30000000000000004">
<path d="M139.49 403.13C140.31 402.33 142 402.78 143.3 402.64C145.112 402.333 146.461 400.797 146.53 398.96C146.557 397.711 146.094 396.502 145.24 395.59C143.31 393.3 141.04 393.28 138.6 393.31C136.16 393.34 133.6 394.4 132.44 396.53C131.1 399.01 131.98 402.13 133.44 404.53C133.898 405.394 134.592 406.112 135.44 406.6C136.315 407.091 137.409 406.948 138.13 406.25C138.88 405.38 138.67 403.93 139.49 403.13Z"   fill="#000000" >
</path>
</g>
<g opacity="0.30000000000000004">
<path d="M135.69 387.03C136.166 388.183 136.843 389.243 137.69 390.16C138.36 390.95 139.32 391.81 140.3 391.48C140.862 391.253 141.264 390.749 141.36 390.15C141.45 389.563 141.398 388.963 141.21 388.4C140.818 387.085 140.134 385.875 139.21 384.86C138.773 384.313 138.18 383.912 137.51 383.71C136.821 383.521 136.091 383.811 135.72 384.42L136.21 383.93C135.388 384.744 135.178 385.992 135.69 387.03Z" fill-rule="evenodd"  fill="#000000" >
</path>
</g>
<g opacity="0.30000000000000004">
<path d="M125.37 390.92L125.86 390.44C125.04 391.251 124.83 392.496 125.34 393.53C125.816 394.684 126.493 395.744 127.34 396.66C128.02 397.45 128.97 398.31 129.96 397.98C130.519 397.75 130.92 397.247 131.02 396.65C131.107 396.062 131.052 395.462 130.86 394.9C130.472 393.583 129.788 392.372 128.86 391.36C128.423 390.813 127.83 390.412 127.16 390.21C126.472 390.021 125.741 390.311 125.37 390.92Z"   fill="#000000" >
</path>
</g>
<g opacity="0.30000000000000004">
<path d="M134.16 390.59C134.247 390.002 134.192 389.402 134 388.84C133.612 387.523 132.928 386.312 132 385.3C131.563 384.753 130.97 384.352 130.3 384.15C129.612 383.961 128.882 384.251 128.51 384.86L129 384.38C128.18 385.191 127.97 386.435 128.48 387.47C128.956 388.624 129.633 389.684 130.48 390.6C131.16 391.39 132.11 392.25 133.1 391.92C133.661 391.691 134.062 391.188 134.16 390.59Z"   fill="#000000" >
</path>
</g>
<g opacity="0.30000000000000004">
<path d="M163.25 434.4C157.409 430.998 152.077 426.79 147.41 421.9L147 421.3C149.857 426.677 153.456 431.625 157.69 436C161.947 440.404 167.197 443.723 173 445.68C175.66 446.53 178.59 447.01 181.23 446.1C184.97 444.81 187.34 440.9 187.77 436.97C188.2 433.04 187 429.11 185.42 425.49C184.75 429.15 183.93 433.09 181.17 435.59C178.656 437.648 175.368 438.503 172.17 437.93C168.998 437.334 165.97 436.136 163.25 434.4Z"   fill="#000000" >
</path>
</g>
<g opacity="0.30000000000000004">
<path d="M143.28 415.87C142.99 416.27 142.7 416.68 142.42 417.09C145.783 411.664 151.857 408.525 158.229 408.92C164.6 409.314 170.24 413.178 172.909 418.977C175.578 424.777 174.845 431.574 171 436.67C159.757 432.074 149.58 425.215 141.1 416.52L143.28 415.87Z" fill-rule="evenodd"  fill="#FFFFFF" >
</path>
</g>
<path d="M410.42 452.21C410.92 451.41 411.42 450.61 411.96 449.76C414.089 446.026 415.931 442.134 417.47 438.12C420.179 430.785 422.283 423.239 423.76 415.56C424.35 412.62 424.76 410.23 425.09 408.56C425.23 407.78 425.35 407.15 425.44 406.66C425.476 406.436 425.53 406.216 425.6 406C425.608 406.224 425.591 406.449 425.55 406.67C425.48 407.17 425.39 407.8 425.29 408.59C425.06 410.26 424.67 412.66 424.12 415.59C422.759 423.327 420.711 430.927 418 438.3C416.441 442.345 414.559 446.258 412.37 450C411.86 450.86 411.31 451.66 410.81 452.46L410.05 453.63L409.24 454.72L407.7 456.77C407.17 457.4 406.64 457.99 406.14 458.55C405.64 459.11 405.19 459.68 404.69 460.14L403.31 461.47L402.1 462.62L401 463.49L399.47 464.69C399.301 464.841 399.112 464.969 398.91 465.07C399.061 464.901 399.225 464.744 399.4 464.6L400.87 463.34L401.93 462.44L403.1 461.26L404.45 459.92C404.94 459.45 405.37 458.87 405.86 458.31L407.38 456.52L408.89 454.46L409.68 453.38C409.93 453 410.17 452.61 410.42 452.21Z"   fill="#263238" >
</path>
<path d="M251.15 312.93C251.356 312.853 251.571 312.8 251.79 312.77C251.594 312.873 251.39 312.96 251.18 313.03L249.38 313.68C248.6 313.95 247.65 314.29 246.55 314.68C245.45 315.07 244.19 315.55 242.82 316.12C240.07 317.21 236.82 318.62 233.3 320.29C229.78 321.96 226 324 222 326.24C218 328.48 214.48 330.84 211.25 333.06C208.02 335.28 205.25 337.4 202.9 339.25C201.73 340.15 200.71 341.02 199.8 341.77C198.89 342.52 198.11 343.16 197.49 343.71L196.03 344.94C195.882 345.092 195.718 345.226 195.54 345.34C195.671 345.16 195.825 344.999 196 344.86L197.39 343.56C198 342.99 198.75 342.31 199.65 341.56C200.55 340.81 201.55 339.9 202.71 338.98C205 337.09 207.81 334.98 211.02 332.68C214.23 330.38 217.86 328.09 221.78 325.81C225.7 323.53 229.55 321.57 233.09 319.89C236.63 318.21 239.91 316.89 242.69 315.82C244.07 315.27 245.34 314.82 246.45 314.44C247.56 314.06 248.53 313.73 249.32 313.49L251.15 312.93Z"   fill="#263238" >
</path>
<path d="M167.6 328.48C167.47 328.62 167.39 328.65 167.39 328.64C167.39 328.64 167.45 328.59 167.57 328.5L168.13 328.12L170.33 326.72C171.28 326.11 172.45 325.38 173.85 324.59C175.25 323.8 176.85 322.84 178.61 321.92L181.41 320.43C182.41 319.92 183.41 319.43 184.5 318.91C186.62 317.84 188.96 316.84 191.4 315.75C196.33 313.67 201.83 311.59 207.73 309.75C213.63 307.91 219.36 306.58 224.61 305.54C227.24 305.07 229.74 304.59 232.1 304.28C233.27 304.12 234.41 303.93 235.5 303.81L238.66 303.46C240.66 303.22 242.49 303.12 244.09 303C245.69 302.88 247.09 302.81 248.21 302.78L250.81 302.71L251.48 302.71C251.559 302.695 251.64 302.695 251.72 302.71L251.49 302.71L250.81 302.77L248.22 302.94C247.09 303 245.71 303.08 244.12 303.24C242.53 303.4 240.7 303.51 238.7 303.78L235.55 304.16C234.46 304.29 233.33 304.49 232.16 304.66C229.81 304.98 227.32 305.48 224.7 305.96C219.48 307.03 213.77 308.41 207.88 310.2C201.99 311.99 196.51 314.08 191.59 316.13C189.15 317.2 186.81 318.19 184.69 319.24C183.62 319.76 182.57 320.24 181.59 320.73L178.78 322.19C176.98 323.09 175.4 324.01 174 324.78C172.6 325.55 171.4 326.25 170.43 326.83L168.19 328.15L167.6 328.48Z"   fill="#263238" >
</path>
<path d="M286.56 295.68C286.62 295.83 284.04 296.92 281.19 298.83C278.34 300.74 276.33 302.69 276.19 302.57C278.921 299.348 282.505 296.96 286.53 295.68L286.56 295.68Z"   fill="#263238" >
</path>
<path d="M302.5 300.55C302.846 300.701 303.174 300.888 303.48 301.11C303.48 301.21 302 300.54 299.55 299.92C296.358 299.086 293.05 298.782 289.76 299.02C286.468 299.157 283.246 300.014 280.32 301.53C279.155 302.231 278.153 303.172 277.38 304.29C277.482 303.926 277.655 303.586 277.89 303.29C278.497 302.46 279.257 301.754 280.13 301.21C282.31 299.78 285.82 298.79 289.72 298.49C293.067 298.248 296.43 298.607 299.65 299.55C300.621 299.821 301.573 300.155 302.5 300.55Z"   fill="#263238" >
</path>
<path d="M270.62 309.45L271.79 312.25C272.135 312.974 272.371 313.746 272.49 314.54C272.604 315.347 272.363 316.164 271.83 316.78C270.904 317.562 269.572 317.631 268.57 316.95C267.623 316.249 266.922 315.265 266.57 314.14C266.15 313.04 265.87 311.88 265.36 310.82C266.678 309.618 267.292 307.828 266.99 306.07C266.99 306.07 268 309.27 270.62 309.45Z"   fill="#F5F5F5" >
</path>
<path d="M254.29 299.25C256.081 295.643 259.308 292.957 263.18 291.85C269.56 290.17 276.18 296.85 276.18 296.85C276.18 296.85 268.47 294.58 268.58 298.41C268.69 302.24 270.96 302.15 268.4 304.67C265.84 307.19 261.45 304.54 260.4 301.57L258.34 298.67L254.29 299.25Z"   fill="#263238" >
</path>
<path d="M266.48 305.04L266.97 304.91C267.225 305.961 267.729 306.935 268.44 307.75C269.901 309.463 272.083 310.389 274.33 310.25C276.159 310.051 277.833 309.129 278.98 307.69C279.774 306.732 280.317 305.591 280.56 304.37C280.69 303.53 280.66 303 280.71 303C280.71 303 280.71 303.13 280.76 303.36C280.793 303.709 280.793 304.061 280.76 304.41C280.577 305.691 280.059 306.902 279.26 307.92C278.08 309.482 276.314 310.493 274.37 310.72C271.961 310.904 269.609 309.926 268.04 308.09C267.273 307.21 266.734 306.156 266.47 305.02L266.96 304.88C267.569 306.787 267.263 308.869 266.13 310.52C264.579 312.693 261.813 313.631 259.26 312.85C258.997 312.77 258.743 312.667 258.5 312.54C258.34 312.45 258.26 312.4 258.26 312.38C258.26 312.36 258.63 312.52 259.31 312.68C260.271 312.899 261.269 312.899 262.23 312.68C263.67 312.355 264.933 311.493 265.76 310.27C266.782 308.727 267.047 306.802 266.48 305.04Z" fill-rule="evenodd"  fill="#263238" >
</path>
<path d="M268.35 292.79C267.688 292.889 267.018 292.919 266.35 292.88C264.732 292.863 263.12 293.072 261.56 293.5C260.018 293.95 258.62 294.79 257.5 295.94C256.67 296.85 256.37 297.58 256.29 297.55C256.421 296.857 256.747 296.215 257.23 295.7C258.32 294.401 259.777 293.46 261.41 293C263.019 292.554 264.694 292.388 266.36 292.51C267.033 292.499 267.705 292.594 268.35 292.79Z"   fill="#FFFFFF" >
</path>
<path d="M270.27 317.64C269.305 316.019 268.578 314.267 268.11 312.44C267.485 310.662 267.121 308.802 267.03 306.92C267.18 306.92 267.71 309.34 268.61 312.29C269.51 315.24 270.41 317.58 270.27 317.64Z"   fill="#263238" >
</path>
<path d="M231.55 312.79C228.55 313.7 225.31 314.85 221.96 316.21C218.61 317.57 215.52 319.08 212.74 320.53C209.96 321.98 207.54 323.41 205.53 324.67C203.52 325.93 201.93 326.99 200.84 327.75L199.57 328.6C199.24 328.78 199.08 328.87 199.07 328.85C199.191 328.721 199.325 328.603 199.47 328.5L200.68 327.56C201.68 326.75 203.31 325.64 205.3 324.34C207.29 323.04 209.71 321.58 212.48 320.08C215.25 318.58 218.37 317.08 221.73 315.71C225.09 314.34 228.36 313.22 231.37 312.31C234.38 311.4 237.14 310.74 239.47 310.31C241.8 309.88 243.7 309.51 245.02 309.31L246.54 309.12C246.716 309.1 246.894 309.1 247.07 309.12C246.904 309.191 246.729 309.238 246.55 309.26L245.05 309.54C243.74 309.76 241.86 310.14 239.55 310.66C237.24 311.18 234.55 311.88 231.55 312.79Z"   fill="#263238" >
</path>
<path d="M232.472 257.633C244.587 260.521 252.066 272.683 249.178 284.798C246.289 296.912 234.127 304.391 222.013 301.503C209.898 298.615 202.419 286.453 205.307 274.338C208.196 262.224 220.358 254.745 232.472 257.633Z"   fill="#F5F5F5" >
</path>
<path d="M249.81 279.6C249.81 290.48 242.46 299.31 236.24 299.31C230.02 299.31 225 290.48 225 279.6C225 268.72 230 259.88 236.28 259.88C242.56 259.88 249.81 268.71 249.81 279.6Z"   fill="#263238" >
</path>
<path d="M245.1 268.45C245.1 270.582 243.372 272.31 241.24 272.31C239.108 272.31 237.38 270.582 237.38 268.45C237.38 266.318 239.108 264.59 241.24 264.59C243.372 264.59 245.1 266.318 245.1 268.45Z"   fill="#FFFFFF" >
</path>
<path d="M231.26 293.92C231.035 293.631 230.847 293.315 230.7 292.98C230.228 292.095 229.824 291.176 229.49 290.23C228.971 288.832 228.566 287.394 228.28 285.93C227.94 284.136 227.753 282.316 227.72 280.49C227.714 278.66 227.864 276.834 228.17 275.03C228.427 273.562 228.801 272.117 229.29 270.71C229.603 269.759 229.987 268.833 230.44 267.94C230.576 267.585 230.757 267.248 230.98 266.94C231.07 266.94 230.38 268.39 229.64 270.79C229.21 272.192 228.876 273.622 228.64 275.07C228.367 276.847 228.234 278.642 228.24 280.44C228.272 282.237 228.443 284.029 228.75 285.8C229.013 287.247 229.377 288.674 229.84 290.07C230.63 292.49 231.35 293.88 231.26 293.92Z"   fill="#FFFFFF" >
</path>
<path d="M221.53 250.88C221.47 251.61 220.63 252.17 219.53 252.69C218.43 253.21 216.94 253.69 215.47 254.36C214 255.03 212.71 255.61 211.61 256.11C210.51 256.61 209.61 256.91 208.96 256.52C208.31 256.13 208.23 255.04 208.96 253.59C209.946 251.76 211.552 250.342 213.49 249.59C215.345 248.772 217.417 248.583 219.39 249.05C220.8 249.43 221.59 250.18 221.53 250.88Z"   fill="#263238" >
</path>
<path d="M113.91 443L118.98 435.06C143.12 461.58 222.88 493.12 294.29 421.83C324.96 391.21 322.48 339.47 322.48 339.47L316.38 320.31L322.48 320.31C322.48 320.31 340.16 352.92 321.65 395.62C321.65 395.62 302.65 446.23 244.48 464.62C152.72 493.6 113.91 443 113.91 443Z"   fill="#FF725E" >
</path>
<g opacity="0.7">
<path d="M113.91 443L118.98 435.06C143.12 461.58 222.88 493.12 294.29 421.83C324.96 391.21 322.48 339.47 322.48 339.47L316.38 320.31L322.48 320.31C322.48 320.31 340.16 352.92 321.65 395.62C321.65 395.62 302.65 446.23 244.48 464.62C152.72 493.6 113.91 443 113.91 443Z"   fill="#FFFFFF" >
</path>
</g>
<path d="M112.542 391.396C129.471 408.326 129.471 435.773 112.542 452.703C95.613 469.632 68.1653 469.632 51.2361 452.703C34.3069 435.773 34.3069 408.326 51.2361 391.396C68.1653 374.467 95.613 374.467 112.542 391.396Z"   fill="#FF725E" >
</path>
<g opacity="0.7">
<path d="M112.542 391.396C129.471 408.326 129.471 435.773 112.542 452.703C95.613 469.632 68.1653 469.632 51.2361 452.703C34.3069 435.773 34.3069 408.326 51.2361 391.396C68.1653 374.467 95.613 374.467 112.542 391.396Z"   fill="#FFFFFF" >
</path>
</g>
<path d="M83.7197 403.46C84.7797 401.24 85.8197 399.15 86.6197 397.12C87.0397 396.12 87.4797 395.12 87.8297 394.19C88.1797 393.26 88.5097 392.32 88.8297 391.45C89.5097 389.71 89.9497 388.08 90.3997 386.68C90.6097 385.97 90.8297 385.31 90.9997 384.68C91.1697 384.05 91.2997 383.51 91.4297 383C91.6897 382 91.8897 381.25 92.0397 380.68C92.0979 380.417 92.1782 380.16 92.2797 379.91C92.2564 380.188 92.2062 380.462 92.1297 380.73C92.0097 381.31 91.8297 382.09 91.6197 383.08C91.4997 383.59 91.3697 384.16 91.2297 384.77C91.0897 385.38 90.8697 386.04 90.6697 386.77C90.2397 388.19 89.8297 389.83 89.1697 391.58L88.1697 394.34C87.8297 395.34 87.3997 396.27 86.9897 397.29C86.2097 399.34 85.1697 401.45 84.1197 403.68C81.7139 408.468 78.9668 413.077 75.8997 417.47C72.7696 421.821 69.3308 425.942 65.6097 429.8C63.8397 431.53 62.1997 433.2 60.5197 434.62C59.6997 435.34 58.9197 436.07 58.1297 436.71L55.8397 438.54C54.4097 439.74 52.9997 440.67 51.8397 441.54C51.2297 441.97 50.6797 442.38 50.1497 442.73L48.6797 443.66L46.6797 444.92C46.4517 445.082 46.2069 445.22 45.9497 445.33C46.1622 445.149 46.386 444.982 46.6197 444.83L48.6197 443.49L50.0597 442.49C50.5797 442.12 51.1197 441.7 51.7197 441.27C52.8997 440.38 54.2897 439.42 55.7197 438.21L57.9797 436.37C58.7697 435.72 59.5297 434.99 60.3397 434.26C61.9997 432.83 63.6297 431.15 65.3397 429.42C69.0056 425.573 72.4004 421.477 75.4997 417.16C78.5544 412.79 81.3011 408.212 83.7197 403.46Z"   fill="#FF725E" >
</path>
<path d="M58.0499 448.15C56.7499 449 55.5999 449.73 54.6499 450.28L52.4499 451.56C52.2001 451.718 51.9395 451.859 51.6699 451.98C51.8999 451.792 52.144 451.621 52.3999 451.47L54.5399 450.11C55.4799 449.53 56.6199 448.82 57.8899 447.91C59.1599 447 60.6799 446.05 62.2199 444.83L64.6699 443C65.5299 442.36 66.3599 441.6 67.2499 440.87C69.0599 439.42 70.8499 437.72 72.7599 435.95C76.805 432.019 80.5614 427.801 83.9999 423.33C87.3794 418.818 90.4146 414.058 93.0799 409.09C94.2599 406.77 95.3999 404.58 96.2899 402.44C96.7399 401.38 97.2899 400.38 97.6099 399.37C97.9299 398.36 98.3599 397.37 98.7099 396.49C99.4599 394.66 99.9299 392.95 100.43 391.49C100.67 390.74 100.92 390.05 101.1 389.41C101.28 388.77 101.43 388.18 101.57 387.64C101.86 386.64 102.08 385.8 102.25 385.2C102.326 384.905 102.419 384.614 102.53 384.33C102.499 384.625 102.442 384.916 102.36 385.2C102.22 385.81 102.03 386.63 101.78 387.67C101.65 388.21 101.5 388.81 101.34 389.46C101.18 390.11 100.95 390.8 100.72 391.55C100.25 393.04 99.7999 394.78 99.0699 396.61L97.9999 399.52C97.6299 400.52 97.1399 401.52 96.6899 402.62C95.8199 404.77 94.6899 406.98 93.5199 409.31C90.8611 414.318 87.8187 419.112 84.4199 423.65C80.9676 428.14 77.1801 432.362 73.0899 436.28C71.1699 438.05 69.3499 439.75 67.5299 441.19C66.6299 441.92 65.7899 442.67 64.9199 443.3L62.4299 445.15C60.8799 446.36 59.3499 447.3 58.0499 448.15Z"   fill="#FF725E" >
</path>
<path d="M58.8198 459.33C59.0525 459.141 59.2999 458.97 59.5598 458.82L61.7198 457.46L63.2898 456.46C63.8598 456.1 64.4598 455.67 65.1098 455.23C66.3998 454.32 67.9098 453.36 69.4698 452.13C70.2698 451.53 71.0998 450.91 71.9598 450.25C72.8198 449.59 73.6598 448.85 74.5698 448.11C76.3898 446.66 78.2098 444.95 80.1398 443.19C84.2526 439.259 88.101 435.059 91.6598 430.62C95.1612 426.14 98.3616 421.433 101.24 416.53C102.51 414.23 103.76 412.08 104.76 409.97C105.27 408.97 105.76 407.97 106.24 406.97C106.72 405.97 107.09 405.02 107.49 404.12C108.33 402.32 108.92 400.62 109.49 399.12C109.78 398.39 110.05 397.71 110.28 397.07C110.51 396.43 110.69 395.85 110.87 395.32C111.22 394.32 111.5 393.5 111.7 392.9C111.782 392.633 111.882 392.373 112 392.12C111.949 392.412 111.876 392.7 111.78 392.98C111.6 393.59 111.35 394.4 111.04 395.44C110.88 395.97 110.69 396.56 110.5 397.2C110.31 397.84 110.02 398.53 109.75 399.28C109.19 400.75 108.62 402.46 107.75 404.28L106.52 407.15C106.09 408.15 105.57 409.15 105.06 410.21C104.06 412.33 102.84 414.51 101.58 416.82C98.7349 421.757 95.5576 426.495 92.0698 431C88.4978 435.459 84.6219 439.666 80.4698 443.59C78.4698 445.36 76.6898 447.06 74.8398 448.51C73.9298 449.24 73.0798 449.98 72.1998 450.63L69.6898 452.49C68.1098 453.7 66.5798 454.65 65.2698 455.49C64.6098 455.92 63.9998 456.34 63.4198 456.69L61.8298 457.63L59.6098 458.91C59.3561 459.067 59.0922 459.208 58.8198 459.33Z"   fill="#FF725E" >
</path>
<path d="M122.37 432.85C121.77 432.57 120.9 432.13 119.84 431.58C117.72 430.48 114.84 428.88 111.69 427C108.54 425.12 105.8 423.31 103.83 421.95C102.83 421.27 102.06 420.71 101.52 420.3C101.227 420.113 100.959 419.892 100.72 419.64C101.047 419.766 101.356 419.934 101.64 420.14L104.03 421.64C106.03 422.92 108.84 424.64 111.96 426.55C115.08 428.46 117.96 430.08 120.02 431.26L122.47 432.67C122.796 432.818 123.1 433.014 123.37 433.25C123.02 433.163 122.684 433.028 122.37 432.85Z"   fill="#FF725E" >
</path>
<path d="M122.3 421.97C120.53 420.76 118.07 419.12 115.3 417.42C112.53 415.72 109.92 414.3 108.04 413.26C106.999 412.745 105.997 412.157 105.04 411.5C105.348 411.571 105.644 411.685 105.92 411.84C106.47 412.08 107.25 412.45 108.21 412.93C110.13 413.93 112.76 415.28 115.57 416.98C118.38 418.68 120.81 420.38 122.57 421.67C123.43 422.32 124.12 422.85 124.57 423.24C125.02 423.63 125.23 423.85 125.2 423.87C124.191 423.303 123.222 422.668 122.3 421.97Z"   fill="#FF725E" >
</path>
<path d="M98.4897 461.2C98.3397 461.2 97.9997 453.26 97.7297 443.45C97.4597 433.64 97.3497 425.68 97.4897 425.68C97.6297 425.68 97.9697 433.62 98.2497 443.43C98.5297 453.24 98.6297 461.2 98.4897 461.2Z"   fill="#FF725E" >
</path>
<path d="M77.1199 466.17C76.8564 462.867 76.7696 459.552 76.8599 456.24C76.7693 452.928 76.8561 449.613 77.1199 446.31C77.3776 449.613 77.4643 452.928 77.3799 456.24C77.4641 459.552 77.3773 462.867 77.1199 466.17Z"   fill="#FF725E" >
</path>
<path d="M87.6196 465C87.4796 465 87.3996 458.5 87.4596 450.49C87.5196 442.48 87.6696 435.97 87.8196 435.97C87.9696 435.97 88.0296 442.47 87.9796 450.49C87.9296 458.51 87.7596 465 87.6196 465Z"   fill="#FF725E" >
</path>
<path d="M65.4599 429.79C65.3799 429.91 59.7199 426.26 52.8299 421.63C45.9399 417 40.3999 413.15 40.4799 413C40.5599 412.85 46.2199 416.53 53.1199 421.16C60.0199 425.79 65.5399 429.67 65.4599 429.79Z"   fill="#FF725E" >
</path>
<path d="M48.0999 430.37C50.7799 432.04 53.2199 433.42 55.0299 434.37C56.021 434.856 56.9827 435.401 57.9099 436C57.6099 435.954 57.3193 435.86 57.0499 435.72C56.5199 435.51 55.7499 435.17 54.8199 434.72C52.4167 433.546 50.0798 432.241 47.8199 430.81C45.1599 429.13 42.8199 427.46 41.1999 426.22C40.2809 425.593 39.4207 424.883 38.6299 424.1C39.6005 424.642 40.5327 425.25 41.4199 425.92C43.1099 427.09 45.4199 428.7 48.0999 430.37Z"   fill="#FF725E" >
</path>
<path d="M78.1097 405.37C75.952 405.836 73.768 406.17 71.5697 406.37C68.8768 406.609 66.1722 406.693 63.4697 406.62C60.7677 406.523 58.0734 406.272 55.3997 405.87C53.2185 405.534 51.0583 405.073 48.9297 404.49C48.0197 404.26 47.2097 404 46.4997 403.77C45.7897 403.54 45.1697 403.33 44.6897 403.13C44.1688 402.961 43.6636 402.747 43.1797 402.49C43.7144 402.597 44.2395 402.747 44.7497 402.94C45.2497 403.11 45.8597 403.3 46.5797 403.49C47.2997 403.68 48.1097 403.93 49.0197 404.14C50.8397 404.61 53.0197 405.01 55.4697 405.4C58.1228 405.769 60.7929 406.002 63.4697 406.1C66.1382 406.169 68.8085 406.099 71.4697 405.89C73.6609 405.712 75.8408 405.415 77.9997 405C78.9297 404.84 79.7497 404.63 80.4697 404.46C81.1897 404.29 81.8197 404.13 82.3197 403.98C82.8425 403.801 83.3818 403.673 83.9297 403.6C83.4404 403.836 82.9319 404.03 82.4097 404.18C81.8069 404.403 81.1927 404.593 80.5697 404.75C79.8497 404.95 79.0297 405.18 78.1097 405.37Z"   fill="#FF725E" >
</path>
<path d="M51.6398 395.7C51.0239 395.549 50.4164 395.365 49.8198 395.15C49.2984 394.998 48.7901 394.804 48.2998 394.57C48.8379 394.649 49.367 394.779 49.8798 394.96C50.3698 395.11 50.9898 395.26 51.7098 395.41C52.4298 395.56 53.2498 395.77 54.1698 395.91C56.3172 396.281 58.4841 396.528 60.6598 396.65C63.3258 396.771 65.9963 396.747 68.6598 396.58C71.3215 396.38 73.9715 396.046 76.5998 395.58C79.0098 395.11 81.1798 394.64 82.9598 394.12C83.8598 393.88 84.6598 393.62 85.3698 393.39C86.0798 393.16 86.6798 392.98 87.1698 392.79C87.6726 392.606 88.1915 392.468 88.7198 392.38C88.2489 392.646 87.7573 392.873 87.2498 393.06C86.7698 393.28 86.1698 393.5 85.4698 393.75C84.7698 394 83.9698 394.29 83.0798 394.55C80.9805 395.194 78.8472 395.721 76.6898 396.13C74.0441 396.614 71.3732 396.948 68.6898 397.13C66.0055 397.289 63.3141 397.289 60.6298 397.13C58.4397 396.989 56.2615 396.702 54.1098 396.27C53.1798 396.11 52.3598 395.89 51.6398 395.7Z"   fill="#FF725E" >
</path>
<path d="M86.6599 384.29C82.5492 385.556 78.3466 386.502 74.0899 387.12C69.8298 387.742 65.523 387.987 61.2199 387.85C59.5699 387.78 58.2199 387.68 57.3199 387.57C56.8406 387.543 56.365 387.469 55.8999 387.35C56.3789 387.307 56.8609 387.307 57.3399 387.35C58.2499 387.4 59.5799 387.44 61.2299 387.46C65.5018 387.496 69.7705 387.212 73.9999 386.61C78.2347 385.982 82.4262 385.09 86.5499 383.94C88.1299 383.5 89.4099 383.13 90.2899 382.86C90.7423 382.701 91.2073 382.581 91.6799 382.5C91.2625 382.733 90.8196 382.918 90.3599 383.05C89.4999 383.38 88.2299 383.81 86.6599 384.29Z"   fill="#FF725E" >
</path>
<path d="M109.2 425.15C107.483 427.411 105.629 429.565 103.65 431.6C101.797 433.754 99.8172 435.794 97.7197 437.71C99.4381 435.447 101.292 433.29 103.27 431.25C105.12 429.098 107.101 427.061 109.2 425.15Z"   fill="#FF725E" >
</path>
<path d="M99.6099 445.84C99.6099 445.77 100.77 445.14 102.61 444C105.023 442.524 107.311 440.852 109.45 439C111.564 437.116 113.518 435.059 115.29 432.85C116.68 431.13 117.45 430 117.52 430.07C117.412 430.371 117.26 430.654 117.07 430.91C116.75 431.44 116.25 432.17 115.6 433.06C112.187 437.681 107.827 441.52 102.81 444.32C101.81 444.85 101.06 445.25 100.5 445.5C100.221 445.654 99.9209 445.769 99.6099 445.84Z"   fill="#FF725E" >
</path>
<path d="M120.05 434.51C119.676 438.486 117.638 442.118 114.44 444.51C115.696 443.042 116.84 441.481 117.86 439.84C118.72 438.12 119.452 436.338 120.05 434.51Z"   fill="#FF725E" >
</path>
<path d="M128.44 443.7C128.137 445.31 127.401 446.807 126.31 448.03C125.351 449.36 124.043 450.398 122.53 451.03C123.726 449.993 124.855 448.88 125.91 447.7C126.83 446.417 127.675 445.081 128.44 443.7Z"   fill="#FF725E" >
</path>
<path d="M142 452C142.047 453.728 141.595 455.432 140.7 456.91C139.949 458.467 138.756 459.768 137.27 460.65C138.388 459.409 139.392 458.071 140.27 456.65C140.981 455.154 141.56 453.598 142 452Z"   fill="#FF725E" >
</path>
<path d="M157.53 459.46C157.9 461.083 157.728 462.784 157.04 464.3C156.51 465.874 155.485 467.235 154.12 468.18C156.205 465.74 157.407 462.668 157.53 459.46Z"   fill="#FF725E" >
</path>
<path d="M171.87 472.25C171.72 472.2 172.32 470.25 172.46 467.81C172.6 465.37 172.25 463.36 172.4 463.33C173.356 466.264 173.167 469.451 171.87 472.25Z"   fill="#FF725E" >
</path>
<path d="M183.62 473.11C183.48 473.05 184.2 471.31 184.39 469.04C184.58 466.77 184.19 464.94 184.39 464.91C185.392 467.614 185.124 470.626 183.66 473.11L183.62 473.11Z"   fill="#FF725E" >
</path>
<path d="M200.06 473C199.91 473 200.15 471.29 199.88 469.24C199.61 467.19 198.97 465.62 199.11 465.56C199.869 466.623 200.316 467.877 200.4 469.18C200.65 470.46 200.532 471.785 200.06 473Z"   fill="#FF725E" >
</path>
<path d="M211.42 472C211.26 472 211.26 470.39 210.72 468.52C210.18 466.65 209.37 465.26 209.5 465.18C211.12 467.056 211.824 469.554 211.42 472Z"   fill="#FF725E" >
</path>
<path d="M224.75 469.07C224.59 469.07 224.67 467.5 224.08 465.71C223.49 463.92 222.54 462.71 222.67 462.59C224.474 464.222 225.267 466.693 224.75 469.07Z"   fill="#FF725E" >
</path>
<path d="M241.16 465.73C241 465.73 240.98 463.98 240.25 461.99C239.52 460 238.42 458.64 238.54 458.54C240.546 460.357 241.527 463.048 241.16 465.73Z"   fill="#FF725E" >
</path>
<path d="M255 460.33C254.85 460.33 254.3 458.56 253.12 456.58C251.94 454.6 250.63 453.24 250.74 453.13C253.029 454.897 254.553 457.474 255 460.33Z"   fill="#FF725E" >
</path>
<path d="M270.47 452.22C270.32 452.22 269.85 450.34 268.59 448.32C267.33 446.3 265.85 445.02 265.95 444.9C268.476 446.54 270.135 449.226 270.47 452.22Z"   fill="#FF725E" >
</path>
<path d="M285.58 441.39C284.921 440.224 284.183 439.105 283.37 438.04C282.435 437.083 281.432 436.194 280.37 435.38C281.729 435.761 282.926 436.576 283.78 437.7C284.76 438.705 285.391 439.999 285.58 441.39Z"   fill="#FF725E" >
</path>
<path d="M298.52 430.34C298.39 430.43 297.19 428.82 295.37 427.18C293.55 425.54 291.85 424.47 291.93 424.33C293.359 424.862 294.653 425.701 295.72 426.79C296.9 427.756 297.856 428.967 298.52 430.34Z"   fill="#FF725E" >
</path>
<path d="M310.11 415.93C309.98 416.01 308.98 414.39 307.22 412.93C305.46 411.47 303.71 410.73 303.77 410.58C306.591 411.304 308.926 413.278 310.11 415.94L310.11 415.93Z" fill-rule="evenodd"  fill="#FF725E" >
</path>
<path d="M320.44 398.78C319.272 397.847 318.054 396.979 316.79 396.18C315.442 395.54 314.06 394.976 312.65 394.49C314.201 394.481 315.723 394.911 317.04 395.73C318.442 396.4 319.623 397.458 320.44 398.78Z"   fill="#FF725E" >
</path>
<path d="M326.72 380.25C324.019 378.684 320.915 377.953 317.8 378.15C320.936 377.241 324.319 378.037 326.72 380.25Z"   fill="#FF725E" >
</path>
<path d="M329.51 360.35C329.46 360.5 327.83 359.93 325.74 359.71C323.65 359.49 321.94 359.71 321.92 359.51C324.463 358.792 327.185 359.094 329.51 360.35Z"   fill="#FF725E" >
</path>
<path d="M328.48 340.42C327.538 340.54 326.588 340.58 325.64 340.54C324.701 340.661 323.755 340.708 322.81 340.68C324.601 339.89 326.623 339.798 328.48 340.42Z"   fill="#FF725E" >
</path>
<path d="M324.4 326.73C323.413 326.525 322.407 326.434 321.4 326.46C320.423 326.65 319.47 326.949 318.56 327.35C318.56 327.3 318.74 327.01 319.22 326.69C319.858 326.278 320.584 326.021 321.34 325.94C322.095 325.855 322.859 325.951 323.57 326.22C324.15 326.43 324.43 326.67 324.4 326.73Z"   fill="#FF725E" >
</path>
<g opacity="0.30000000000000004">
<path d="M256.58 394C261.43 403.21 272.74 407.94 283.08 406.68C293.42 405.42 302.63 398.99 309.08 390.79C313.83 384.73 317.35 376.88 315.39 369.44C304.749 391.56 278.844 401.723 256 392.74L256.58 394Z"   fill="#000000" >
</path>
</g>
<path d="M335.77 262.57C339.507 267.478 340.85 273.802 339.428 279.805C338.007 285.808 333.971 290.859 328.43 293.57C326.348 294.525 324.39 295.731 322.6 297.16C319.13 300.16 320.55 303.57 320.55 303.57L317.1 314.75C312.273 307.31 314.159 297.389 321.38 292.24C324.14 290.24 327.47 289.17 330.08 287.01C333.304 284.182 335.251 280.173 335.48 275.89C335.672 271.637 334.73 267.409 332.75 263.64L335.53 262.27L335.77 262.57Z"   fill="#FF725E" >
</path>
<g opacity="0.7">
<path d="M321.38 292.24C324.14 290.24 327.47 289.17 330.08 287.01C333.304 284.182 335.251 280.173 335.48 275.89C335.672 271.637 334.73 267.409 332.75 263.64L335.53 262.27L335.77 262.57C339.507 267.478 340.85 273.802 339.428 279.805C338.007 285.808 333.971 290.859 328.43 293.57C326.348 294.525 324.39 295.731 322.6 297.16C319.13 300.16 320.55 303.57 320.55 303.57L317.1 314.75C312.273 307.31 314.159 297.389 321.38 292.24Z"   fill="#FFFFFF" >
</path>
</g>
<path d="M321 303.75C319.867 303.526 318.714 303.425 317.56 303.45C316.415 303.635 315.295 303.946 314.22 304.38C316.087 302.682 318.852 302.425 321 303.75Z"   fill="#FF725E" >
</path>
<path d="M323.62 296.12C323.48 296.17 323.04 295.3 322.22 294.48C321.4 293.66 320.54 293.2 320.59 293.06C320.64 292.92 321.68 293.19 322.59 294.11C323.5 295.03 323.75 296.08 323.62 296.12Z"   fill="#FF725E" >
</path>
<path d="M333.43 290.32C333.29 290.37 332.93 289.4 332.14 288.45C331.35 287.5 330.5 286.94 330.57 286.81C330.64 286.68 331.69 287.07 332.57 288.13C333.45 289.19 333.57 290.3 333.43 290.32Z"   fill="#FF725E" >
</path>
<path d="M340 277.88C339.235 277.827 338.475 277.71 337.73 277.53C336.964 277.513 336.201 277.429 335.45 277.28C336.971 276.708 338.678 276.933 340 277.88Z"   fill="#FF725E" >
</path>
<path d="M337.77 265.86C337.77 266.01 336.92 265.96 335.99 266.24C335.06 266.52 334.37 266.97 334.27 266.86C334.17 266.75 334.77 266.04 335.84 265.74C336.91 265.44 337.81 265.73 337.77 265.86Z"   fill="#FF725E" >
</path>
<path d="M269.72 342.45C274.31 342.02 278.24 338.96 281.27 335.5C285.014 331.222 287.799 326.193 289.44 320.75C291.1 315.21 291.95 308.7 296.72 305.42C301.49 302.14 308.11 303.79 312.21 307.67C316.31 311.55 318.29 317.15 319.59 322.67C322.59 335.39 322.64 348.96 318.52 361.37C314.4 373.78 305.93 384.9 294.43 391.12C282.93 397.34 268.43 398.23 256.73 392.41L245.21 339.89C248.75 337.59 253.44 338.35 257.46 339.68C261.48 341.01 265.51 342.85 269.72 342.45Z"   fill="#FF725E" >
</path>
<path d="M303.04 385.36C298.854 389.057 294.014 391.94 288.77 393.86C286.497 394.697 284.154 395.333 281.77 395.76C279.64 396.153 277.484 396.387 275.32 396.46C271.852 396.564 268.384 396.228 265 395.46C263.61 395.16 262.41 394.76 261.36 394.46C260.31 394.16 259.46 393.75 258.77 393.46L257.23 392.73C256.9 392.48 256.73 392.38 256.73 392.38C256.914 392.443 257.094 392.517 257.27 392.6L258.83 393.28C259.53 393.55 260.4 393.87 261.43 394.28C262.46 394.69 263.68 394.97 265.07 395.28C268.439 396.008 271.885 396.314 275.33 396.19C277.479 396.103 279.618 395.856 281.73 395.45C284.099 395.018 286.425 394.375 288.68 393.53C293.876 391.589 298.664 388.696 302.8 385C307.56 380.788 311.52 375.75 314.49 370.13C317.768 363.922 319.914 357.18 320.83 350.22C321.816 342.746 321.654 335.165 320.35 327.74C319.749 323.973 318.809 320.268 317.54 316.67C316.348 313.169 314.307 310.019 311.6 307.5C308.927 305.139 305.454 303.887 301.89 304C300.184 304.074 298.526 304.591 297.08 305.5C295.684 306.421 294.52 307.654 293.68 309.1C291.96 311.94 291.22 315.18 290.38 318.24C289.643 321.258 288.584 324.188 287.22 326.98C285.938 329.584 284.371 332.039 282.55 334.3C280.904 336.421 278.965 338.296 276.79 339.87C274.806 341.32 272.494 342.258 270.06 342.6C267.885 342.798 265.693 342.564 263.61 341.91C259.72 340.76 256.54 339.28 253.73 338.83C251.602 338.358 249.391 338.413 247.29 338.99C246.751 339.159 246.229 339.376 245.73 339.64C245.39 339.83 245.21 339.91 245.21 339.91L245.7 339.6C246.191 339.311 246.711 339.073 247.25 338.89C249.367 338.259 251.609 338.17 253.77 338.63C256.61 339.06 259.83 340.52 263.69 341.63C265.737 342.259 267.888 342.476 270.02 342.27C272.396 341.924 274.649 340.996 276.58 339.57C278.72 338.009 280.626 336.15 282.24 334.05C284.027 331.802 285.566 329.368 286.83 326.79C288.176 324.02 289.218 321.113 289.94 318.12C290.77 315.07 291.5 311.79 293.27 308.85C294.143 307.337 295.359 306.049 296.82 305.09C298.319 304.131 300.043 303.583 301.82 303.5C303.634 303.416 305.447 303.698 307.15 304.33C308.891 304.956 310.502 305.898 311.9 307.11C314.669 309.684 316.757 312.903 317.98 316.48C319.264 320.113 320.215 323.855 320.82 327.66C322.141 335.134 322.3 342.767 321.29 350.29C320.363 357.309 318.189 364.106 314.87 370.36C311.868 376.035 307.859 381.118 303.04 385.36Z"   fill="#263238" >
</path>
<path d="M299.77 317.15C299.258 316.727 298.848 316.194 298.57 315.59C297.815 314.162 297.436 312.565 297.47 310.95C297.489 309.338 297.912 307.757 298.7 306.35C298.989 305.748 299.418 305.224 299.95 304.82C300.02 304.88 299.54 305.46 299.03 306.52C297.689 309.329 297.642 312.583 298.9 315.43C299.39 316.5 299.85 317.1 299.77 317.15Z"   fill="#263238" >
</path>
<path d="M305.84 316.27C305.382 315.798 305.022 315.241 304.78 314.63C304.109 313.183 303.716 311.622 303.62 310.03C303.519 308.44 303.723 306.844 304.22 305.33C304.381 304.692 304.67 304.093 305.07 303.57C303.56 307.728 303.838 312.325 305.84 316.27Z"   fill="#263238" >
</path>
<path d="M310.7 318C310.068 316.483 309.807 314.838 309.94 313.2C309.896 311.557 310.238 309.926 310.94 308.44C311.09 308.49 310.52 310.57 310.46 313.21C310.4 315.85 310.85 318 310.7 318Z"   fill="#263238" >
</path>
<path d="M394.19 330.5C385.04 336.08 372.87 335.02 363.39 330.01C353.91 325 346.73 316.61 340.74 307.81C339.04 305.31 337.32 302.66 334.68 301.15C329.49 298.15 322.32 301.05 319.34 306.15C316.36 311.25 316.92 317.79 319.22 323.25C319.22 323.25 325.32 352.81 357.12 371.19L394.19 330.5Z"   fill="#FF725E" >
</path>
<path d="M317.15 312.31C317.344 310.333 317.907 308.41 318.81 306.64C321.213 302.078 326.099 299.381 331.24 299.78C332.705 299.954 334.11 300.46 335.35 301.26C336.536 302.069 337.588 303.057 338.47 304.19C339.36 305.29 340.14 306.45 340.9 307.58C341.66 308.71 342.45 309.82 343.23 310.9C344.81 313.07 346.43 315.14 348.1 317.07C351.233 320.761 354.803 324.059 358.73 326.89C362.16 329.354 365.966 331.249 370 332.5C375.824 334.396 382.069 334.59 388 333.06C388.495 332.938 388.982 332.788 389.46 332.61C389.91 332.45 390.34 332.32 390.72 332.16C391.48 331.82 392.14 331.56 392.64 331.3L393.79 330.69C393.918 330.616 394.051 330.552 394.19 330.5C394.073 330.59 393.95 330.67 393.82 330.74L392.69 331.39C392.19 331.67 391.54 331.94 390.78 332.3C390.39 332.47 389.97 332.61 389.52 332.78C389.04 332.97 388.549 333.13 388.05 333.26C382.075 334.886 375.756 334.744 369.86 332.85C365.784 331.611 361.937 329.716 358.47 327.24C354.502 324.402 350.896 321.091 347.73 317.38C346.04 315.44 344.41 313.38 342.82 311.2C342.03 310.11 341.25 308.99 340.48 307.86C339.71 306.73 338.94 305.58 338.07 304.51C337.218 303.424 336.207 302.473 335.07 301.69C333.897 300.935 332.566 300.459 331.18 300.3C328.305 300.038 325.433 300.831 323.1 302.53C319.928 304.846 317.938 308.442 317.66 312.36C317.364 316.06 317.982 319.776 319.46 323.18L319.46 323.23C320.539 327.443 322.047 331.535 323.96 335.44C325.688 339.037 327.694 342.495 329.96 345.78C333.687 351.245 338.051 356.247 342.96 360.68L345.96 363.27C346.89 364.11 347.88 364.74 348.73 365.42L351.16 367.24C351.9 367.81 352.65 368.24 353.28 368.64L356.21 370.54L356.96 371.04C357.018 371.095 357.072 371.155 357.12 371.22C357.023 371.187 356.932 371.14 356.85 371.08L356.07 370.62C355.37 370.19 354.38 369.57 353.07 368.79C352.44 368.37 351.68 367.97 350.93 367.41L348.48 365.62C347.61 364.95 346.61 364.32 345.67 363.49L342.67 360.92C337.721 356.487 333.32 351.478 329.56 346C327.291 342.703 325.284 339.232 323.56 335.62C321.623 331.691 320.095 327.572 319 323.33L319 323.38C317.479 319.899 316.843 316.096 317.15 312.31Z"   fill="#263238" >
</path>
<path d="M327.82 317.89C327.062 315.474 325.997 313.165 324.65 311.02C322.31 307.52 319.33 305.68 319.45 305.54C320.147 305.83 320.792 306.232 321.36 306.73C324.25 309.013 326.366 312.131 327.42 315.66C327.681 316.375 327.817 317.129 327.82 317.89Z"   fill="#263238" >
</path>
<path d="M334 313.88C333.606 311.342 332.88 308.868 331.84 306.52C330.64 304.25 329.151 302.146 327.41 300.26C328.067 300.658 328.658 301.158 329.16 301.74C330.439 303.088 331.501 304.626 332.31 306.3C333.114 307.971 333.66 309.755 333.93 311.59C334.084 312.344 334.108 313.118 334 313.88Z"   fill="#263238" >
</path>
<g opacity="0.30000000000000004">
<path d="M313.33 372.57C315.82 368.76 305.56 367.86 301.04 368.39C287.326 369.966 277.037 381.677 277.24 395.48C277.24 395.48 297 397.59 313.33 372.57Z"   fill="#FFFFFF" >
</path>
</g>
<g opacity="0.30000000000000004">
<path d="M330.18 355.56C335.378 363.512 343.087 369.496 352.08 372.56C353.023 372.97 354.06 373.115 355.08 372.98C356.117 372.827 356.898 371.958 356.94 370.91C346.25 365.095 337.087 356.833 330.2 346.8C329.675 349.878 330.115 353.042 331.46 355.86L330.18 355.56Z"   fill="#000000" >
</path>
</g>
<path d="M316.421 256.188C325.228 264.995 325.228 279.272 316.421 288.079C307.615 296.885 293.337 296.885 284.531 288.079C275.724 279.272 275.724 264.995 284.531 256.188C293.337 247.382 307.615 247.382 316.421 256.188Z"   fill="#F5F5F5" >
</path>
<path d="M323 273.08C323 283.97 317.28 293.08 310.91 293.08C304.54 293.08 299.37 284.25 299.37 273.37C299.37 262.49 304.54 253.66 310.91 253.66C317.28 253.66 323 262.2 323 273.08Z"   fill="#263238" >
</path>
<path d="M303.91 279.5C302.168 274.481 302.314 268.999 304.32 264.08C304.616 263.343 304.97 262.631 305.38 261.95C305.506 261.687 305.672 261.444 305.87 261.23C305.95 261.23 305.35 262.35 304.67 264.23C303.793 266.658 303.307 269.21 303.23 271.79C303.163 274.367 303.501 276.938 304.23 279.41C304.84 281.28 305.39 282.39 305.3 282.43C305.111 282.207 304.956 281.958 304.84 281.69C304.478 280.983 304.167 280.251 303.91 279.5Z"   fill="#FFFFFF" >
</path>
<path d="M317.65 260.73C317.65 262.862 315.922 264.59 313.79 264.59C311.658 264.59 309.93 262.862 309.93 260.73C309.93 258.598 311.658 256.87 313.79 256.87C315.922 256.87 317.65 258.598 317.65 260.73Z"   fill="#FFFFFF" >
</path>
<path d="M301.59 239.47C302.484 239.013 303.447 238.706 304.44 238.56C305.653 238.371 306.887 238.371 308.1 238.56C310.286 238.892 312.321 239.874 313.94 241.38C315.14 242.62 315.49 243.73 315.08 244.3C314.65 244.89 313.56 244.88 312.19 244.66C310.82 244.44 309.1 244.04 307.24 243.74C305.38 243.44 303.7 243.26 302.35 243.07C301 242.88 299.96 242.61 299.69 241.93C299.42 241.25 300.07 240.28 301.59 239.47Z"   fill="#263238" >
</path>
<path d="M304.86 300.29C301.26 292.893 303.689 283.973 310.544 279.424C317.398 274.874 326.561 276.099 331.98 282.29L304.86 300.29Z"   fill="#FF725E" >
</path>
<path d="M305 286.48C303.996 288.733 303.478 291.173 303.48 293.64C303.48 295.305 303.732 296.961 304.23 298.55C304.59 299.67 304.87 300.27 304.82 300.29C304.727 300.163 304.649 300.026 304.59 299.88C304.38 299.472 304.196 299.051 304.04 298.62C303.451 297.018 303.14 295.327 303.12 293.62C303.053 291.091 303.545 288.578 304.56 286.26C306.961 280.338 312.75 276.495 319.14 276.58C321.669 276.551 324.173 277.073 326.48 278.11C328.033 278.793 329.46 279.732 330.7 280.89C331.039 281.201 331.357 281.535 331.65 281.89C331.783 282.008 331.9 282.143 332 282.29C332 282.29 331.52 281.84 330.63 281.07C329.358 279.991 327.928 279.114 326.39 278.47C324.117 277.509 321.667 277.039 319.2 277.09C312.995 277.033 307.376 280.748 305 286.48Z"   fill="#263238" >
</path>
<path d="M259.57 215.07L258.08 215.47C257.43 215.63 256.64 215.86 255.73 216.14L254.28 216.57L252.66 217.12C246.782 219.174 241.142 221.856 235.84 225.12C230.53 228.395 225.452 232.03 220.64 236C218.79 237.52 217.3 238.76 216.29 239.64L215.1 240.64C214.83 240.87 214.68 240.98 214.66 240.96C214.768 240.817 214.892 240.686 215.03 240.57L216.15 239.5C217.15 238.58 218.58 237.3 220.4 235.73C225.166 231.679 230.238 228.002 235.57 224.73C240.902 221.42 246.609 218.755 252.57 216.79L254.2 216.26L255.68 215.87C256.6 215.61 257.39 215.41 258.05 215.28L259.57 214.98C259.736 214.933 259.907 214.906 260.08 214.9C259.92 214.984 259.748 215.042 259.57 215.07Z"   fill="#263238" >
</path>
<path d="M113.95 83.2903C113.959 84.9628 114.076 86.6329 114.3 88.2903C114.66 91.0603 115.16 92.7603 115.06 92.7803C114.881 92.4065 114.743 92.0141 114.65 91.6103C114.53 91.2303 114.4 90.7503 114.28 90.2003C114.16 89.6503 114 89.0003 113.9 88.3003C113.626 86.647 113.472 84.9759 113.44 83.3003C113.415 81.2424 113.555 79.1858 113.86 77.1503C114.193 75.1151 114.684 73.109 115.33 71.1503C115.882 69.5602 116.551 68.0127 117.33 66.5203C117.64 65.8703 117.99 65.3203 118.27 64.8203C118.55 64.3203 118.82 63.9203 119.05 63.5903C119.263 63.231 119.515 62.8958 119.8 62.5903C119.88 62.6403 118.89 64.1103 117.66 66.6703C116.95 68.1699 116.335 69.713 115.82 71.2903C115.208 73.2312 114.733 75.2128 114.4 77.2203C114.106 79.2304 113.955 81.2589 113.95 83.2903Z"   fill="#263238" >
</path>
<path d="M134.406 71.9238L157.1 193.891L373.938 153.545L351.245 31.5786L134.406 71.9238Z"   fill="#FFFFFF" >
</path>
<path d="M157.06 193.66L313.06 164.75L357.87 156.48L369.81 154.29L372.89 153.73L373.95 153.55L372.95 153.76L369.9 154.34L358 156.57L313.26 165L157.14 194.13L156.9 194.18L156.9 193.94C149.9 156.36 142.22 115.11 134.18 71.9401L134.18 71.6801L134.43 71.6801L134.43 71.6801L351.2 31.3701L351.4 31.3701L351.4 31.5601L367.88 120.74C369.82 131.29 371.33 139.5 372.36 145.08L373.52 151.42C373.82 152.82 373.94 153.54 373.94 153.54C373.94 153.54 373.78 152.8 373.51 151.36C373.24 149.92 372.83 147.78 372.3 144.99C371.25 139.41 369.7 131.18 367.72 120.62C363.72 99.5101 358.06 69.0501 351.04 31.6201L351.28 31.7801L134.46 72.1701L134.46 72.1701L134.67 71.8601C142.67 115 150.36 156.26 157.35 193.86L157.06 193.66Z" fill-rule="evenodd"  fill="#263238" >
</path>
<path d="M225.81 108.63L227.67 118.66L221 119.9L222.6 128.47L210.26 130.77L208.66 122.2L185 126.6L183.46 118.35L198.34 86.6802L211.45 84.2402L198.09 113.78L207.17 112.09L205.75 104.48L217.75 102.26L219.17 109.86L225.81 108.63Z"   fill="#263238" >
</path>
<path d="M267.087 97.0442C269.817 111.814 263.087 121.864 251.727 123.974C240.367 126.084 230.407 119.154 227.657 104.384C224.907 89.6142 231.657 79.5642 243.087 77.4342C254.517 75.3042 264.357 82.2742 267.087 97.0442ZM240.367 102.009C238.617 92.6094 240.997 88.5794 244.997 87.7894C248.997 86.9994 252.637 89.9994 254.387 99.3794L254.387 99.3994C256.137 108.799 253.887 112.859 249.797 113.619C245.707 114.379 242.117 111.409 240.367 102.009Z" fill-rule="evenodd"  fill="#263238" >
</path>
<path d="M286.68 97.3003L295.76 95.6103L294.34 88.0003L306.34 85.7803L307.75 93.3803L314.4 92.1503L316.23 102.18L309.58 103.42L311.17 111.99L298.84 114.29L297.24 105.72L273.58 110.12L272.05 101.87L286.93 70.2003L300 67.7603L286.68 97.3003Z"   fill="#263238" >
</path>
<path d="M232.08 154.75L232.49 156.93L219.75 159.3L216.48 141.74L228.87 139.44L229.27 141.62L219.39 143.46L220.39 148.85L229.2 147.21L229.6 149.35L220.79 151L221.85 156.66L232.08 154.75Z"   fill="#263238" >
</path>
<path d="M239.06 155.723L236.56 156.193L233.29 138.633L240.14 137.353C244.7 136.503 247.89 138.303 248.6 142.113C249.183 144.6 248.022 147.168 245.77 148.373L251.03 153.493L248.28 154.003L243.49 149.313C243.15 149.403 242.78 149.503 242.4 149.573L238.06 150.383L239.06 155.723ZM236.19 140.368L240.46 139.578C243.67 138.948 245.61 140.068 246.08 142.578L246.08 142.568C246.55 145.078 245.14 146.838 241.93 147.478L237.66 148.268L236.19 140.368Z" fill-rule="evenodd"  fill="#263238" >
</path>
<path d="M264 144.996L269.26 150.116L266.51 150.596L261.72 145.906C261.38 145.996 261.01 146.096 260.63 146.166L256.29 146.966L257.29 152.316L254.79 152.776L251.52 135.226L258.37 133.946C262.93 133.096 266.12 134.946 266.83 138.706C267.428 141.202 266.265 143.788 264 144.996ZM254.42 136.968L258.69 136.178C261.9 135.548 263.84 136.668 264.31 139.178C264.78 141.678 263.37 143.448 260.16 144.078L255.89 144.868L254.42 136.968Z" fill-rule="evenodd"  fill="#263238" >
</path>
<path d="M288.625 137.413C289.625 142.583 286.335 147.123 280.995 148.123C275.655 149.123 270.895 146.003 269.935 140.883C268.985 135.743 272.225 131.163 277.625 130.163C283.025 129.163 287.625 132.243 288.625 137.413ZM273.561 135.101C275.167 132.786 278.011 131.672 280.761 132.281C283.512 132.889 285.622 135.105 286.101 137.881L286.101 137.871C286.48 139.674 286.101 141.556 285.051 143.071C284.002 144.586 282.373 145.601 280.551 145.881C277.783 146.404 274.975 145.204 273.441 142.841C271.908 140.477 271.956 137.415 273.561 135.101Z" fill-rule="evenodd"  fill="#263238" >
</path>
<path d="M308.52 142.782L305.81 143.292L301 138.602C300.65 138.692 300.28 138.782 299.9 138.852L295.56 139.662L296.56 145.002L294.05 145.472L290.78 127.912L297.63 126.642C302.2 125.792 305.38 127.582 306.09 131.402C306.68 133.89 305.517 136.462 303.26 137.662L308.52 142.782ZM293.72 129.652L297.98 128.862C301.19 128.242 303.14 129.362 303.6 131.862C304.07 134.372 302.66 136.142 299.45 136.762L295.19 137.552L293.72 129.652Z" fill-rule="evenodd"  fill="#263238" >
</path>
<path d="M346.67 44.7802C346.742 46.6091 345.704 48.3008 344.04 49.0649C342.377 49.829 340.417 49.5145 339.076 48.2685C337.736 47.0225 337.279 45.0909 337.919 43.3762C338.559 41.6615 340.171 40.5023 342 40.4402C344.486 40.3557 346.572 42.2951 346.67 44.7802Z"   fill="#E0E0E0" >
</path>
<path d="M346.66 44.7799C346.71 44.7799 346.66 44.8799 346.71 45.0699C346.729 45.3509 346.712 45.6332 346.66 45.9099C346.482 46.953 345.94 47.8991 345.13 48.5799C343.907 49.6222 342.235 49.9656 340.7 49.4899C338.782 48.8946 337.448 47.1553 337.369 45.1486C337.29 43.142 338.485 41.3036 340.35 40.5599C341.842 39.9598 343.537 40.1674 344.84 41.1099C345.699 41.7299 346.311 42.6328 346.57 43.6599C346.646 43.9299 346.683 44.2094 346.68 44.4899C346.69 44.6799 346.69 44.7799 346.67 44.7799C346.62 44.7799 346.61 44.3799 346.39 43.7099C346.071 42.7742 345.457 41.9671 344.64 41.4099C343.295 40.499 341.553 40.4197 340.13 41.2047C338.708 41.9897 337.846 43.5063 337.9 45.1299C337.98 46.7469 338.958 48.1833 340.433 48.8512C341.907 49.5191 343.632 49.3063 344.9 48.2999C345.673 47.6833 346.221 46.8293 346.46 45.8699C346.63 45.1799 346.61 44.7799 346.66 44.7799Z"   fill="#263238" >
</path>
<path d="M344.15 41.6401C344.374 42.8466 344.154 44.0934 343.53 45.1501C343.064 46.2835 342.205 47.2104 341.11 47.7601C341.823 46.855 342.475 45.9028 343.06 44.9101C343.494 43.8451 343.858 42.7528 344.15 41.6401Z"   fill="#263238" >
</path>
<path d="M345 46.4301C344.87 46.5101 344.27 45.3201 342.91 44.6201C342.049 44.2719 341.143 44.0496 340.22 43.9601C340.22 43.8901 340.52 43.7501 341.07 43.7101C341.791 43.6725 342.509 43.8278 343.15 44.1601C343.79 44.4908 344.329 44.9883 344.71 45.6001C345 46.0701 345.1 46.4101 345 46.4301Z"   fill="#263238" >
</path>
<path d="M132.638 113.483L136.741 118.628L148.116 109.556L144.014 104.412L132.638 113.483Z"   fill="#E0E0E0" >
</path>
<path d="M144.11 104.34C145.38 105.98 146.39 107.34 147.11 108.22C147.473 108.647 147.807 109.098 148.11 109.57C148.11 109.57 147.65 109.07 146.91 108.19L143.91 104.54L144.18 104.54C141.26 106.92 137.27 110.14 132.85 113.66C132.85 113.99 132.85 113.22 132.85 113.3L132.85 113.3L132.92 113.39L133.06 113.56L133.33 113.89L133.86 114.56L134.86 115.87L136.86 118.37L136.51 118.37C139.79 115.78 142.64 113.58 144.69 112L147.11 110.16C147.405 109.919 147.715 109.699 148.04 109.5C147.805 109.746 147.551 109.974 147.28 110.18L144.98 112.1C142.98 113.74 140.16 116.1 136.82 118.76L136.63 118.91L136.47 118.72L134.47 116.23C134.12 115.8 133.77 115.37 133.42 114.92L132.89 114.26L132.62 113.92L132.48 113.75L132.42 113.67L132.42 113.67L132.42 113.67C132.42 113.75 132.5 112.98 132.42 113.31C136.84 109.78 140.87 106.61 143.84 104.31L143.99 104.2L144.11 104.34Z" fill-rule="evenodd"  fill="#263238" >
</path>
<path d="M130.08 120C131.078 121.264 132.538 122.08 134.137 122.268C135.737 122.455 137.346 121.999 138.61 121L131 111.5C128.411 113.6 128.001 117.395 130.08 120Z"   fill="#E0E0E0" >
</path>
<path d="M129.61 119.47C129.233 118.915 128.956 118.299 128.79 117.65C128.523 116.647 128.523 115.592 128.79 114.59C129.119 113.289 129.859 112.128 130.9 111.28L131.09 111.13L131.24 111.32L135.04 116.05C136.38 117.73 137.65 119.34 138.81 120.81L138.96 121L138.77 121.15C137.712 121.974 136.42 122.44 135.08 122.48C134.036 122.506 133.004 122.265 132.08 121.78C131.487 121.471 130.952 121.062 130.5 120.57C130.331 120.403 130.189 120.211 130.08 120C130.714 120.605 131.431 121.117 132.21 121.52C134.268 122.471 136.685 122.18 138.46 120.77L138.46 121.11L134.66 116.38L130.89 111.62L131.22 111.62C129.446 113.039 128.625 115.338 129.1 117.56C129.313 118.414 129.642 119.236 130.08 120C129.896 119.849 129.737 119.67 129.61 119.47Z" fill-rule="evenodd"  fill="#263238" >
</path>
<path d="M130.85 120.89C130.317 120.311 130.12 119.499 130.33 118.74C130.52 117.44 131.4 116.74 131.48 116.85C131.56 116.96 131 117.7 130.84 118.85C130.68 120 131 120.82 130.85 120.89Z"   fill="#263238" >
</path>
<path d="M138.63 117.5C137.824 116.675 137.081 115.789 136.41 114.85C135.611 114.023 134.876 113.137 134.21 112.2C135.243 112.765 136.132 113.558 136.81 114.52C137.629 115.367 138.25 116.385 138.63 117.5Z"   fill="#263238" >
</path>
<path d="M140 116.44C139.198 115.613 138.459 114.727 137.79 113.79C136.989 112.961 136.253 112.072 135.59 111.13C137.558 112.419 139.094 114.269 140 116.44Z"   fill="#263238" >
</path>
<path d="M141.3 115.37C140.495 114.546 139.756 113.66 139.09 112.72C138.286 111.895 137.548 111.009 136.88 110.07C137.914 110.636 138.807 111.429 139.49 112.39C140.302 113.24 140.92 114.257 141.3 115.37Z"   fill="#263238" >
</path>
<path d="M142.63 114.31C141.828 113.483 141.089 112.597 140.42 111.66C139.622 110.828 138.887 109.939 138.22 109C139.246 109.573 140.134 110.365 140.82 111.32C141.64 112.168 142.259 113.19 142.63 114.31Z"   fill="#263238" >
</path>
<path d="M144 113.24C143.195 112.416 142.456 111.53 141.79 110.59C140.988 109.766 140.252 108.88 139.59 107.94C140.618 108.51 141.506 109.303 142.19 110.26C143.002 111.11 143.62 112.127 144 113.24Z"   fill="#263238" >
</path>
<path d="M145.3 112.18C144.498 111.353 143.759 110.467 143.09 109.53C142.292 108.699 141.557 107.81 140.89 106.87C141.916 107.443 142.804 108.235 143.49 109.19C144.31 110.038 144.929 111.06 145.3 112.18Z"   fill="#263238" >
</path>
<path d="M146.64 111.11C145.835 110.286 145.096 109.4 144.43 108.46C143.628 107.636 142.892 106.75 142.23 105.81C143.258 106.381 144.147 107.173 144.83 108.13C145.642 108.98 146.26 109.997 146.64 111.11Z"   fill="#263238" >
</path>
<path d="M148.178 86.1423C149.68 86.8207 151.437 86.5957 152.72 85.5603C153.505 84.938 154.06 84.0727 154.3 83.1003C154.47 82.4103 154.45 82.0003 154.5 82.0003C154.55 82.0003 154.5 82.1003 154.55 82.2903C154.569 82.5747 154.552 82.8602 154.5 83.1403C154.337 84.2015 153.806 85.1715 153 85.8803C151.765 86.9384 150.07 87.2826 148.52 86.7903C146.607 86.1707 145.283 84.4247 145.203 82.4158C145.123 80.4069 146.303 78.5607 148.16 77.7903C149.673 77.1882 151.388 77.3993 152.71 78.3503C153.577 78.9792 154.196 79.8922 154.46 80.9303C154.533 81.2047 154.573 81.4866 154.58 81.7703C154.547 81.9237 154.52 82.0003 154.5 82.0003C154.45 82.0003 154.44 81.5903 154.22 80.9203C153.903 79.9671 153.276 79.1471 152.44 78.5903C151.079 77.6623 149.313 77.5779 147.87 78.3722C146.427 79.1664 145.553 80.7044 145.61 82.3503C145.682 83.9975 146.675 85.4639 148.178 86.1423Z" fill-rule="evenodd"  fill="#263238" >
</path>
<path d="M124.04 88.6001C124.4 91.3601 124.9 93.0501 124.8 93.0801C124.63 92.7036 124.496 92.3119 124.4 91.9101C124.246 91.4452 124.123 90.9709 124.03 90.4901C123.91 89.9401 123.74 89.3101 123.65 88.6001C123.372 86.947 123.215 85.276 123.18 83.6001C123.101 79.4704 123.744 75.3587 125.08 71.4501C125.63 69.8558 126.298 68.3048 127.08 66.8101C127.38 66.1601 127.73 65.6101 128.01 65.1201C128.249 64.6972 128.509 64.2867 128.79 63.8901C129.006 63.5327 129.257 63.1977 129.54 62.8901C129.63 62.9501 128.63 64.4101 127.41 66.9801C126.688 68.476 126.07 70.0196 125.56 71.6001C124.948 73.5369 124.477 75.5154 124.15 77.5201C123.847 79.5327 123.693 81.5649 123.69 83.6001C123.698 85.2726 123.815 86.9428 124.04 88.6001Z"   fill="#263238" >
</path>
<path d="M389.61 146.49C389.596 144.818 389.479 143.148 389.26 141.49C388.9 138.76 388.4 137.06 388.49 137C388.675 137.371 388.812 137.764 388.9 138.17C389.049 138.633 389.173 139.104 389.27 139.58C389.39 140.14 389.56 140.77 389.65 141.48C389.928 143.133 390.085 144.804 390.12 146.48C390.197 150.61 389.554 154.721 388.22 158.63C387.672 160.222 387.003 161.77 386.22 163.26C385.91 163.91 385.57 164.46 385.28 164.96C385.046 165.386 384.785 165.797 384.5 166.19C384.292 166.55 384.043 166.885 383.76 167.19C383.67 167.14 384.67 165.67 385.89 163.11C386.6 161.609 387.217 160.066 387.74 158.49C388.353 156.55 388.824 154.568 389.15 152.56C389.452 150.551 389.606 148.522 389.61 146.49Z"   fill="#263238" >
</path>
<path d="M390.26 169C390.17 168.95 391.17 167.48 392.39 164.92C393.103 163.42 393.721 161.877 394.24 160.3C394.853 158.36 395.324 156.378 395.65 154.37C395.953 152.361 396.107 150.332 396.11 148.3C396.097 146.628 395.98 144.958 395.76 143.3C395.4 140.48 394.9 138.78 395 138.76C395.182 139.133 395.32 139.525 395.41 139.93C395.559 140.393 395.682 140.864 395.78 141.34C395.9 141.9 396.06 142.53 396.16 143.24C396.438 144.893 396.595 146.564 396.63 148.24C396.65 150.298 396.51 152.354 396.21 154.39C395.879 156.426 395.384 158.433 394.73 160.39C394.18 161.984 393.511 163.535 392.73 165.03C392.42 165.67 392.08 166.22 391.79 166.72C391.551 167.161 391.287 167.588 391 168C390.792 168.36 390.543 168.696 390.26 169Z"   fill="#263238" >
</path>
<path d="M177.53 217.21C190.657 199.677 188.199 175.017 171.871 160.419C155.543 145.82 130.763 146.129 114.803 161.129C98.8428 176.129 96.9998 200.842 110.559 218.043C124.117 235.245 148.577 239.225 166.89 227.21L181.41 233.64L177.53 217.21Z"   fill="#FAFAFA" >
</path>
<path d="M143.25 185.26C144.432 182.908 146.999 181.589 149.6 182C151.125 182.294 152.522 183.052 153.6 184.17C154.748 185.281 155.533 186.714 155.85 188.28C156.214 190.286 155.919 192.356 155.01 194.18C153.945 196.04 152.45 197.617 150.65 198.78C147.74 200.78 143.91 203.28 143.91 203.28C143.91 203.28 140.4 200.97 137.28 199.33C135.353 198.389 133.68 197 132.4 195.28C131.302 193.568 130.783 191.549 130.92 189.52C131.043 187.928 131.654 186.413 132.67 185.18C133.614 183.932 134.925 183.013 136.42 182.55C139.048 181.791 141.857 182.905 143.25 185.26Z"   fill="#FF725E" >
</path>
<path d="M138.22 233.69C133.592 233.134 129.099 231.763 124.95 229.64C120.922 227.624 117.229 225 114 221.86C110.983 218.78 108.427 215.281 106.41 211.47C104.519 207.829 103.171 203.931 102.41 199.9C102.26 198.9 102.11 197.9 101.96 196.97C101.81 196.04 101.83 194.97 101.76 194.05C101.023 179.133 108.29 164.953 120.83 156.84C124.456 154.437 128.448 152.637 132.65 151.51L135.1 150.86L137.3 150.5L139.18 150.19C139.76 150.12 140.29 150.11 140.76 150.07L142.91 149.91C143.168 149.9 143.425 149.873 143.68 149.83C143.434 149.808 143.186 149.808 142.94 149.83L140.79 149.9C140.31 149.9 139.79 149.9 139.2 149.97L137.3 150.23L135.08 150.55L132.6 151.17C128.338 152.244 124.284 154.014 120.6 156.41C109.526 163.452 102.333 175.223 101.12 188.29C100.954 190.225 100.914 192.169 101 194.11C101.07 195.11 101 196.11 101.19 197.11C101.38 198.11 101.49 199.11 101.65 200.11C102.394 204.229 103.742 208.215 105.65 211.94C107.692 215.84 110.293 219.422 113.37 222.57C116.645 225.794 120.4 228.493 124.5 230.57C128.741 232.749 133.336 234.157 138.07 234.73C139.268 234.918 140.477 235.022 141.69 235.04C142.907 235.133 144.129 235.157 145.35 235.11C147.815 235.008 150.267 234.697 152.68 234.18C157.887 233.052 162.837 230.956 167.27 228L166.83 228.05L181.69 234.05L182.57 234.41L182.32 233.49L178 217.55L177.93 217.94C181.959 212.596 184.672 206.378 185.85 199.79C186.422 196.725 186.617 193.602 186.43 190.49C186.4 188.985 186.256 187.484 186 186C185.89 185.27 185.77 184.55 185.66 183.83C185.55 183.11 185.31 182.42 185.14 181.72C182.658 171.956 176.785 163.392 168.57 157.56C165.534 155.38 162.213 153.627 158.7 152.35L156.48 151.56L154.37 151.02L152.44 150.54C151.82 150.42 151.22 150.36 150.66 150.27C149.54 150.13 148.55 149.94 147.66 149.89L145.47 149.82L144.14 149.82C143.991 149.798 143.839 149.798 143.69 149.82C143.838 149.853 143.988 149.873 144.14 149.88L145.47 149.98L147.63 150.13C148.49 150.2 149.47 150.41 150.58 150.58C167.051 153.423 180.297 165.709 184.37 181.92C184.53 182.61 184.74 183.29 184.87 183.99C185 184.69 185.08 185.41 185.19 186.12C185.431 187.571 185.562 189.039 185.58 190.51C185.75 193.563 185.549 196.626 184.98 199.63C183.803 206.079 181.124 212.159 177.16 217.38L177.03 217.56L177.09 217.78C178.49 222.91 179.93 228.22 181.42 233.67L182.05 233.11L167.2 227.11L166.97 227.02L166.75 227.15C162.41 230.018 157.575 232.053 152.49 233.15C150.133 233.656 147.738 233.96 145.33 234.06C144.136 234.102 142.941 234.078 141.75 233.99C140.568 233.97 139.388 233.87 138.22 233.69Z" fill-rule="evenodd"  fill="#263238" >
</path>
</svg>
